<?xml version="1.0" standalone="no"?>
<!DOCTYPE svg PUBLIC "-//W3C//DTD SVG 20010904//EN"
 "http://www.w3.org/TR/2001/REC-SVG-20010904/DTD/svg10.dtd">
<svg version="1.0" xmlns="http://www.w3.org/2000/svg"
 width="700.000000pt" height="700.000000pt" viewBox="0 0 700.000000 700.000000"
 preserveAspectRatio="xMidYMid meet">
<metadata>
Created by potrace 1.11, written by Peter Selinger 2001-2013
</metadata>
<g transform="translate(0.000000,700.000000) scale(0.100000,-0.100000)"
fill="#000000" stroke="none">
<path d="M2979 6778 c-59 -10 -90 -26 -154 -80 -174 -145 -339 -454 -401 -753
-31 -149 -24 -417 17 -625 5 -30 12 -66 14 -80 8 -50 66 -275 109 -423 85
-293 139 -412 275 -607 126 -182 127 -183 78 -243 -31 -40 -62 -39 -245 4 -48
11 -94 22 -102 24 -146 34 -426 115 -515 149 -67 26 -201 94 -227 115 -7 6
-40 33 -73 60 -94 76 -155 160 -231 311 -40 81 -108 267 -119 327 -2 15 -7 39
-10 53 -49 227 -52 492 -5 597 32 72 100 93 320 99 218 5 273 -10 460 -131 36
-23 92 -63 124 -89 33 -25 61 -44 64 -42 7 7 -77 247 -99 283 -51 83 -193 182
-326 229 -115 40 -194 52 -328 52 -241 0 -419 -74 -483 -199 -31 -62 -52 -126
-60 -184 -9 -66 -9 -285 0 -358 21 -167 106 -404 195 -545 18 -29 33 -54 33
-57 0 -3 39 -55 86 -117 74 -97 83 -113 66 -116 -27 -4 -94 30 -140 72 -82 75
-187 102 -351 93 -170 -10 -297 -57 -439 -164 -114 -85 -213 -191 -253 -270
-31 -63 -34 -75 -34 -163 0 -128 35 -216 144 -363 182 -246 414 -411 730 -521
161 -56 217 -67 436 -81 78 -6 784 -6 855 0 44 3 94 10 130 20 29 7 163 57
215 80 29 13 63 18 96 16 21 -1 53 -68 51 -104 -4 -54 -70 -169 -250 -436
-141 -211 -225 -320 -307 -403 -107 -108 -249 -186 -415 -228 -120 -30 -137
-32 -295 -35 -142 -2 -186 2 -389 39 -71 13 -286 89 -336 118 -98 59 -113 128
-66 318 40 162 89 251 199 363 104 105 165 156 221 184 l38 20 -33 14 c-22 9
-68 14 -129 14 -106 -1 -178 -24 -278 -90 -143 -95 -291 -308 -332 -477 -6
-24 -13 -52 -16 -63 -3 -11 -7 -71 -9 -133 -5 -182 31 -279 136 -362 105 -83
261 -138 499 -176 60 -10 332 -10 395 -1 289 45 636 212 1040 501 158 113 305
245 391 352 21 27 41 51 44 54 3 3 24 30 46 60 87 116 126 146 174 135 65 -14
77 -71 96 -430 5 -99 4 -513 -1 -555 -25 -201 -66 -311 -165 -445 -192 -260
-682 -536 -989 -559 -50 -3 -57 -1 -81 26 -32 35 -108 185 -145 288 -40 109
-40 180 0 414 13 76 41 180 56 208 6 11 8 22 5 25 -13 13 -107 -49 -170 -112
-117 -116 -176 -261 -182 -450 -5 -181 45 -357 144 -503 16 -24 71 -88 121
-142 80 -87 96 -99 119 -96 15 3 61 8 102 11 270 23 537 147 764 357 210 193
350 412 499 778 129 318 186 558 202 855 13 233 20 275 51 303 28 25 41 27 79
12 30 -12 48 -28 101 -95 21 -27 41 -52 44 -55 14 -13 275 -346 338 -430 126
-170 196 -307 227 -445 17 -75 22 -212 11 -285 -4 -25 -9 -58 -12 -75 -18
-116 -87 -314 -160 -459 -85 -171 -251 -398 -312 -430 -43 -22 -95 -12 -184
34 -107 55 -169 99 -241 172 -110 112 -178 238 -238 438 -22 74 -28 87 -29 60
-1 -55 -19 -119 -41 -149 -33 -45 -29 -242 8 -351 35 -103 112 -214 224 -322
158 -152 308 -210 519 -203 97 4 134 21 213 97 197 192 336 473 371 753 4 28
9 64 12 80 3 17 7 112 8 213 2 101 6 185 8 188 3 2 25 -21 48 -51 36 -47 44
-65 46 -107 2 -28 12 -64 24 -83 32 -51 155 -161 231 -207 62 -36 181 -84 233
-94 12 -2 43 -8 69 -13 51 -9 250 -7 302 4 105 21 213 71 274 126 56 52 99
132 106 202 12 111 6 357 -11 477 -46 322 -294 702 -639 982 -220 177 -466
356 -557 403 -181 94 -205 104 -361 145 -138 37 -157 49 -157 98 0 51 21 77
88 111 60 30 269 113 407 161 44 15 145 51 225 79 368 131 544 119 884 -58
141 -74 203 -119 311 -225 159 -156 300 -350 335 -459 11 -34 9 -41 -15 -83
-30 -52 -131 -155 -216 -220 -91 -70 -168 -102 -286 -119 -21 -4 -45 -8 -53
-10 -8 -2 -42 -7 -75 -10 -33 -4 -87 -11 -120 -16 -33 -5 -63 -9 -67 -9 -20 0
-4 -21 27 -36 20 -9 40 -25 45 -34 5 -10 26 -28 47 -40 71 -42 118 -50 268
-45 269 8 412 64 573 225 72 71 129 150 165 228 28 61 30 193 4 267 -82 230
-318 473 -617 638 -116 64 -320 136 -425 151 -22 3 -56 8 -75 11 -35 5 -127
11 -310 21 -181 10 -667 11 -726 2 -63 -9 -164 -40 -309 -93 -143 -52 -145
-52 -168 4 -31 74 22 183 278 571 201 305 313 418 510 517 124 63 241 80 565
81 209 1 277 -8 435 -55 186 -55 277 -115 291 -191 16 -83 -22 -292 -73 -399
-49 -102 -211 -271 -348 -359 -41 -27 -75 -51 -75 -54 0 -12 210 -1 275 14 95
22 183 75 270 161 90 91 145 178 198 310 47 120 60 189 60 315 -2 236 -86 341
-338 423 -345 113 -693 108 -1015 -14 -167 -63 -492 -254 -704 -413 -254 -191
-409 -345 -516 -511 -72 -113 -88 -121 -158 -84 -44 24 -59 57 -67 151 -3 29
-7 76 -9 103 -18 194 -23 585 -11 724 27 301 188 541 510 758 232 156 463 244
634 240 106 -2 110 -5 168 -114 79 -150 88 -197 87 -443 -2 -198 -14 -264 -69
-367 -18 -35 -30 -63 -28 -63 3 0 40 29 83 65 153 128 219 220 259 363 16 60
20 98 17 210 -3 158 -19 236 -76 359 -44 95 -72 134 -155 221 -79 83 -112 100
-195 97 -183 -6 -311 -40 -497 -130 -329 -160 -560 -424 -742 -846 -30 -68
-61 -142 -71 -164 -10 -22 -47 -128 -83 -235 -109 -321 -135 -457 -136 -695 0
-80 -5 -153 -10 -163 -14 -26 -67 -50 -97 -44 -32 6 -156 140 -329 357 -349
438 -413 595 -381 944 4 41 8 77 10 80 2 3 7 24 10 45 22 139 122 400 221 574
37 67 121 176 166 217 73 65 117 70 217 24 151 -71 286 -184 367 -309 55 -85
79 -133 131 -260 23 -57 46 -106 50 -107 5 -2 10 20 11 48 1 34 10 65 29 96
25 43 26 52 21 127 -10 131 -51 261 -118 372 -69 113 -246 266 -359 310 -25 9
-49 20 -55 24 -16 12 -136 38 -190 42 -27 2 -71 0 -96 -4z m-1542 -2397 c82
-22 149 -65 308 -196 153 -126 210 -169 365 -273 208 -139 292 -177 618 -278
15 -4 32 -46 32 -79 0 -67 -29 -87 -285 -191 -406 -165 -651 -234 -828 -234
-156 1 -275 41 -472 160 -280 170 -634 561 -638 705 -1 32 8 43 88 121 153
146 271 226 359 243 28 6 65 13 81 17 105 21 301 24 372 5z m2158 -346 c211
-49 353 -179 401 -367 17 -66 23 -205 11 -278 -44 -276 -235 -433 -534 -439
-321 -6 -565 252 -547 578 9 172 103 341 239 433 40 27 165 81 165 72 0 -3 7
-1 15 3 28 16 178 15 250 -2z m875 -1060 c96 -25 186 -49 200 -54 14 -5 61
-19 105 -31 257 -70 336 -110 459 -233 196 -195 299 -397 361 -711 57 -288 50
-551 -15 -616 -38 -38 -205 -65 -396 -64 -71 0 -104 6 -150 24 -83 32 -218
105 -291 156 -140 99 -171 162 -283 574 -61 224 -82 289 -128 400 -67 164
-101 223 -255 448 -31 45 -60 94 -63 107 -7 30 17 72 49 84 25 9 150 -16 407
-84z"/>
</g>
</svg>
