<?xml version="1.0" standalone="no"?>
<!DOCTYPE svg PUBLIC "-//W3C//DTD SVG 20010904//EN"
 "http://www.w3.org/TR/2001/REC-SVG-20010904/DTD/svg10.dtd">
<svg version="1.0" xmlns="http://www.w3.org/2000/svg"
 width="910.000000pt" height="973.000000pt" viewBox="0 0 910.000000 973.000000"
 preserveAspectRatio="xMidYMid meet">
<metadata>
Created by potrace 1.13, written by Peter Selinger 2001-2015
</metadata>
<g transform="translate(0.000000,973.000000) scale(0.100000,-0.100000)"
fill="#7f8dc9" stroke="none">
<path d="M3684 9719 c-242 -15 -687 -69 -781 -95 -261 -70 -629 -213 -860
-334 -266 -139 -307 -170 -638 -481 -56 -54 -112 -102 -123 -108 -29 -16 -164
-183 -315 -391 -70 -96 -152 -204 -183 -240 -67 -78 -163 -221 -234 -349 -29
-51 -95 -156 -146 -233 -86 -128 -107 -165 -86 -156 4 2 45 28 92 59 171 114
377 217 710 356 333 139 822 284 1101 327 103 16 411 46 417 41 3 -3 -64 -68
-258 -246 -74 -68 -197 -185 -274 -259 -108 -105 -134 -136 -118 -138 10 -2
73 4 138 12 65 9 152 16 194 16 41 0 123 7 182 15 59 7 147 17 195 20 48 4
126 15 173 25 47 11 139 24 205 30 66 6 127 13 135 16 8 3 87 9 175 14 142 8
278 32 315 55 5 3 40 47 79 98 87 116 200 224 282 270 235 132 376 134 441 7
31 -62 49 -80 79 -80 50 0 177 -43 182 -62 3 -9 35 -31 73 -50 l69 -33 62
-165 c34 -91 63 -172 63 -181 0 -9 12 -33 26 -54 l26 -38 -18 -99 c-14 -82
-15 -108 -6 -146 9 -34 9 -78 2 -162 -5 -63 -15 -188 -22 -278 -6 -89 -15
-159 -19 -155 -4 4 -28 55 -54 113 -25 58 -65 141 -88 185 -40 76 -44 80 -82
86 -22 3 -58 14 -80 24 -32 14 -58 16 -135 12 -124 -6 -163 -19 -215 -72 -36
-36 -49 -59 -75 -141 -35 -110 -34 -146 5 -188 14 -15 45 -36 69 -47 24 -10
46 -26 50 -34 3 -8 14 -15 25 -15 12 0 34 -19 56 -46 50 -66 49 -112 -2 -159
-21 -19 -45 -35 -53 -35 -48 -2 -283 -110 -239 -110 9 0 46 -10 83 -21 70 -22
70 -22 95 -100 17 -53 13 -88 -13 -145 -27 -58 -74 -93 -135 -101 -53 -7 -87
13 -161 96 -34 39 -66 71 -71 71 -5 0 -9 -54 -9 -119 0 -150 -1 -151 -114
-151 -79 0 -83 1 -112 31 -16 17 -66 53 -112 80 -75 45 -88 49 -146 49 -142 0
-210 -43 -268 -169 -50 -109 -53 -169 -13 -260 39 -86 76 -115 193 -150 473
-143 523 -160 529 -178 10 -29 -125 -43 -507 -52 -318 -8 -327 -8 -405 -35
-170 -58 -288 -138 -395 -266 -34 -41 -73 -85 -86 -99 -13 -15 -39 -42 -57
-63 -60 -66 -190 -88 -262 -43 -47 29 -75 31 -118 9 -43 -23 -276 -12 -322 15
-65 37 -44 89 83 213 139 135 272 221 411 267 35 11 70 26 77 32 28 23 85 129
99 184 19 71 48 139 107 245 26 47 61 121 78 164 17 43 50 111 74 150 24 39
73 127 111 195 37 69 85 153 107 189 21 35 46 85 54 110 9 26 27 61 40 78 l23
32 -42 -9 c-69 -15 -363 -170 -657 -347 -151 -91 -279 -167 -283 -170 -12 -6
4 23 78 143 34 55 104 172 155 260 107 184 178 276 270 350 82 66 233 165 285
187 22 9 78 32 124 52 46 19 137 67 202 106 64 40 154 84 199 100 81 28 81 28
43 34 -128 19 -259 28 -338 22 -49 -3 -198 -13 -330 -21 -381 -23 -458 -33
-585 -70 -63 -19 -196 -53 -295 -75 -362 -81 -672 -172 -737 -215 -22 -15 -65
-30 -96 -35 -93 -15 -130 -37 -142 -82 -6 -21 -14 -55 -20 -76 -5 -21 -29 -65
-54 -97 -24 -33 -79 -123 -121 -200 -42 -77 -89 -160 -104 -185 -15 -25 -40
-76 -55 -115 -15 -38 -61 -135 -102 -214 -44 -85 -74 -157 -74 -175 -1 -42
-22 -99 -52 -139 -28 -36 -123 -289 -133 -355 -4 -24 -22 -77 -41 -117 -19
-41 -34 -89 -34 -108 0 -19 -9 -76 -20 -128 -11 -52 -20 -117 -20 -144 0 -28
-7 -78 -16 -110 -8 -33 -20 -116 -25 -185 -5 -69 -14 -143 -20 -165 -6 -22
-13 -142 -16 -267 -5 -198 -4 -228 9 -228 9 0 76 31 150 70 110 57 144 70 181
70 83 0 118 -22 193 -124 26 -34 44 -69 44 -84 0 -21 22 -47 92 -115 157 -148
296 -231 503 -297 124 -40 244 -43 370 -11 110 28 332 140 385 194 36 38 45
42 88 42 31 0 69 -10 112 -30 53 -24 82 -30 153 -33 101 -5 265 19 342 50 36
14 66 19 110 16 62 -4 83 -13 153 -61 29 -20 61 -31 114 -39 122 -17 173 -7
395 76 197 74 243 87 243 66 0 -16 -32 -76 -93 -173 -49 -77 -55 -91 -45 -112
16 -36 1 -94 -36 -131 -23 -23 -58 -40 -126 -62 -160 -51 -187 -53 -565 -50
-300 3 -360 6 -420 21 -105 28 -150 45 -192 75 -32 22 -48 26 -97 25 -67 -2
-99 -20 -241 -139 -168 -140 -260 -193 -409 -239 -49 -15 -136 -46 -195 -70
-156 -62 -233 -86 -308 -93 -88 -9 -103 -28 -110 -143 -5 -76 -3 -91 22 -153
27 -67 27 -73 23 -220 -4 -121 -9 -163 -26 -211 -12 -32 -22 -81 -22 -108 0
-28 -9 -70 -22 -99 l-22 -51 25 -46 c27 -47 33 -51 199 -130 47 -22 136 -74
199 -115 114 -75 161 -95 184 -79 7 5 39 18 72 28 60 20 94 47 95 75 0 28 -53
50 -120 50 l-62 0 -99 101 c-55 55 -104 109 -109 119 -18 33 -11 103 15 158
14 29 34 94 46 144 19 82 26 97 67 141 101 107 160 144 339 212 93 34 236 91
320 124 84 34 178 66 210 71 85 14 242 12 320 -4 37 -8 127 -17 198 -21 72 -3
168 -13 215 -21 47 -8 157 -18 245 -22 l160 -7 27 -55 c37 -72 36 -92 -8 -128
-80 -66 -356 -192 -421 -192 l-23 0 0 -228 0 -229 -41 -149 c-22 -82 -59 -194
-81 -249 -67 -165 -68 -169 -57 -208 5 -20 25 -54 44 -77 41 -49 154 -237 180
-300 10 -25 27 -57 37 -72 10 -14 18 -37 18 -50 0 -13 8 -39 18 -58 11 -19 22
-62 25 -94 3 -32 11 -64 17 -70 6 -6 61 -13 124 -16 102 -5 116 -8 152 -32 45
-31 82 -35 140 -14 64 22 266 135 306 170 35 31 37 35 25 59 -14 32 -30 34
-65 8 -72 -50 -229 -101 -312 -101 -38 0 -103 51 -125 96 -10 22 -39 84 -65
139 -27 55 -53 120 -60 145 -6 25 -24 80 -41 123 -44 118 -38 203 26 387 36
104 146 338 194 415 13 22 27 56 30 75 6 32 13 37 126 95 72 37 196 86 310
124 246 82 310 121 560 341 166 145 224 190 246 190 20 0 20 -5 17 -129 -3
-112 -1 -131 15 -148 27 -31 49 -164 51 -308 1 -125 -8 -216 -39 -430 -22
-146 -21 -166 18 -217 19 -24 37 -56 40 -70 4 -15 16 -29 26 -33 26 -8 157
-245 181 -327 11 -35 24 -88 30 -120 12 -62 6 -55 205 -228 54 -47 108 -101
121 -122 26 -41 109 -87 171 -95 31 -3 48 2 93 30 30 20 74 47 97 62 23 14 58
29 78 32 117 19 274 386 195 458 -19 18 -21 17 -55 -18 -19 -20 -35 -46 -35
-57 0 -33 -83 -192 -130 -247 -14 -17 -79 -27 -105 -17 -31 12 -155 153 -220
249 -66 97 -102 202 -114 328 -5 50 -19 143 -31 206 -27 139 -24 229 7 263 11
13 33 65 47 117 15 51 38 123 52 160 14 36 30 95 34 131 6 45 23 94 54 157
104 211 181 293 275 293 26 0 31 -6 44 -43 9 -23 20 -82 27 -132 8 -69 20
-109 50 -170 59 -123 79 -196 89 -331 12 -154 56 -215 227 -319 143 -87 256
-201 324 -328 62 -116 97 -154 148 -162 20 -3 62 -11 92 -17 30 -6 84 -14 120
-18 36 -4 85 -17 110 -29 57 -26 90 -27 90 -3 0 11 10 24 23 29 13 6 48 53 81
108 32 54 80 129 108 167 50 69 50 69 45 131 -3 34 -10 85 -16 112 -5 28 -10
89 -10 136 -1 79 -3 87 -23 95 -46 20 -58 8 -58 -59 0 -34 -7 -102 -15 -152
-8 -49 -15 -109 -15 -132 0 -87 -81 -137 -188 -114 -111 24 -160 41 -218 80
-89 58 -174 158 -174 205 0 12 -24 54 -53 95 -59 83 -57 80 -87 143 -19 42
-21 58 -14 130 3 46 15 106 25 133 37 97 124 259 150 278 21 15 54 21 140 28
63 4 164 19 224 33 61 14 118 26 128 26 10 0 35 9 55 19 54 28 263 90 360 107
105 18 168 50 229 115 26 29 80 85 120 126 78 79 114 152 116 228 1 51 -21
229 -34 275 -16 58 -22 249 -10 345 6 50 16 142 22 205 12 126 34 188 78 219
31 21 120 46 221 61 41 6 100 18 131 26 66 19 147 8 218 -29 39 -20 51 -34
103 -132 32 -61 68 -131 80 -157 14 -31 28 -48 40 -48 28 0 23 -63 -13 -140
-23 -51 -40 -73 -72 -93 -75 -49 -167 -31 -201 40 -26 55 -69 103 -92 103 -11
0 -28 -8 -38 -19 -15 -16 -15 -19 -1 -31 8 -7 15 -22 16 -34 0 -11 27 -57 59
-101 33 -44 73 -106 90 -137 38 -73 124 -132 144 -99 3 4 27 14 53 22 43 12
179 96 245 151 36 31 88 143 88 192 0 46 -36 266 -52 316 -6 19 -41 100 -78
180 -38 80 -76 171 -85 203 -9 31 -24 61 -33 66 -9 5 -75 21 -147 36 -208 43
-342 89 -455 157 l-99 59 -59 -16 c-33 -8 -76 -15 -96 -15 -31 0 -36 3 -36 23
0 13 22 48 51 82 88 103 102 130 100 186 -1 27 5 62 13 77 19 36 83 96 126
117 19 10 70 51 112 91 53 50 86 74 102 74 13 0 26 7 30 15 12 33 144 10 272
-49 89 -42 164 -112 182 -172 21 -71 15 -181 -13 -242 l-24 -52 -48 0 c-80 1
-123 16 -167 58 -34 33 -93 72 -109 72 -3 0 -7 -15 -10 -32 -4 -30 2 -39 59
-95 77 -74 144 -103 256 -111 70 -4 78 -3 95 18 10 13 32 39 49 59 17 20 39
52 49 71 10 19 31 50 46 68 36 41 42 112 9 112 -35 0 -40 32 -40 243 0 243 1
240 -100 261 -123 26 -243 93 -357 199 -35 33 -77 63 -97 68 -35 10 -49 4
-136 -58 -23 -16 -90 -32 -210 -49 -37 -6 -64 -22 -149 -90 -57 -46 -120 -91
-139 -100 -34 -16 -36 -16 -50 2 -10 14 -12 35 -8 77 7 70 69 315 90 356 30
58 105 292 131 408 50 227 86 341 121 381 l32 37 183 5 c101 3 189 4 196 2 31
-9 67 -88 77 -169 12 -96 2 -129 -41 -138 -43 -10 -134 -57 -170 -88 -44 -39
-72 -86 -82 -140 l-8 -45 36 5 c20 3 49 12 65 20 75 38 114 46 278 52 190 8
196 10 223 92 15 45 15 53 1 97 -8 26 -20 79 -26 117 -6 39 -17 97 -25 130
-21 93 -39 269 -31 316 4 23 13 51 21 62 15 21 9 43 -23 79 -14 16 -16 16 -44
-7 -38 -32 -90 -41 -147 -25 -29 8 -143 15 -311 19 -230 5 -270 8 -302 24 -20
11 -42 25 -49 33 -20 25 -82 17 -111 -13 -32 -35 -48 -66 -48 -93 0 -11 -24
-69 -54 -128 -68 -138 -101 -220 -129 -329 -19 -71 -35 -106 -84 -179 -70
-103 -125 -157 -156 -152 -20 3 -22 9 -22 68 1 36 7 162 15 280 22 323 20 398
-18 491 -30 74 -62 205 -62 252 0 13 -11 45 -24 73 -31 65 -76 207 -82 263 -8
70 -23 99 -61 122 -35 22 -35 22 -31 85 4 69 29 116 64 122 10 2 33 10 49 17
41 18 206 55 276 62 31 2 75 -1 98 -7 56 -15 124 -78 157 -146 22 -45 25 -62
19 -101 -8 -61 -28 -91 -70 -109 -44 -18 -153 -18 -185 1 -14 8 -35 14 -47 15
-21 0 -21 -1 -6 -40 23 -59 141 -167 190 -175 21 -4 63 -19 93 -35 30 -15 70
-31 89 -35 48 -10 112 11 161 55 38 34 50 38 113 45 39 3 105 17 147 30 41 13
95 29 118 35 l44 11 -49 52 c-113 120 -211 296 -253 452 -17 66 -40 149 -52
185 -22 70 -125 280 -137 280 -21 0 -157 -52 -172 -66 -10 -9 -49 -26 -86 -37
-63 -19 -99 -21 -512 -25 -431 -3 -445 -3 -491 17 -27 12 -63 21 -80 21 -29 0
-30 -1 -16 -22 8 -13 17 -48 21 -78 3 -30 19 -104 35 -165 15 -60 31 -132 35
-160 4 -27 20 -88 36 -134 16 -46 33 -118 39 -160 5 -42 14 -94 20 -116 5 -22
13 -103 16 -180 8 -160 -1 -194 -59 -219 -58 -24 -106 -98 -214 -323 -59 -125
-67 -136 -75 -113 -12 33 -5 84 52 355 83 395 89 502 33 613 -26 53 -33 60
-108 96 -150 74 -223 178 -284 402 -41 150 -66 214 -104 265 -18 23 -44 60
-60 81 -15 21 -67 78 -117 127 -107 105 -125 141 -135 266 -9 122 -20 159 -61
205 -29 31 -38 53 -47 105 -12 73 -8 86 36 119 24 17 31 18 60 8 18 -7 80 -12
136 -12 94 0 102 1 90 16 -7 9 -103 61 -214 116 -110 55 -214 108 -231 119
-17 10 -70 30 -118 44 -47 14 -132 43 -188 65 -57 23 -142 47 -192 56 -50 8
-141 28 -201 44 -170 46 -263 60 -485 70 -233 11 -440 11 -616 -1z"/>
</g>
</svg>
