<?xml version="1.0" standalone="no"?>
<!DOCTYPE svg PUBLIC "-//W3C//DTD SVG 20010904//EN"
 "http://www.w3.org/TR/2001/REC-SVG-20010904/DTD/svg10.dtd">
<svg version="1.0" xmlns="http://www.w3.org/2000/svg"
 width="821.000000pt" height="959.000000pt" viewBox="0 0 821.000000 959.000000"
 preserveAspectRatio="xMidYMid meet">
<metadata>
Created by potrace 1.13, written by Peter Selinger 2001-2015
</metadata>
<g transform="translate(0.000000,959.000000) scale(0.100000,-0.100000)"
fill="#7fc3ee" stroke="none">
<path d="M3480 9576 c-93 -22 -167 -34 -365 -62 -120 -16 -216 -35 -260 -51
-38 -14 -104 -36 -145 -50 -41 -14 -96 -34 -122 -44 -26 -11 -76 -26 -113 -34
-49 -12 -89 -31 -161 -80 -52 -35 -210 -121 -352 -191 -141 -70 -348 -181
-460 -247 -228 -135 -297 -195 -457 -392 -98 -119 -259 -299 -396 -440 -69
-72 -90 -100 -102 -140 -8 -28 -35 -97 -59 -155 -25 -58 -78 -192 -117 -298
-52 -140 -83 -207 -111 -245 -69 -90 -162 -355 -200 -564 -20 -113 -30 -224
-42 -458 -19 -351 -15 -454 26 -719 31 -196 36 -253 36 -400 0 -290 23 -479
75 -640 13 -39 30 -111 40 -160 30 -165 97 -340 211 -556 31 -58 86 -163 124
-235 119 -230 182 -324 355 -531 50 -59 135 -162 190 -228 189 -228 348 -372
707 -639 108 -80 199 -151 203 -157 3 -5 10 -10 16 -10 5 0 -8 18 -29 39 -119
123 -324 417 -407 586 -62 125 -188 474 -205 567 -7 34 -29 118 -51 186 -51
161 -59 218 -59 447 0 301 15 432 84 725 19 80 39 177 45 215 6 39 17 90 24
115 l13 45 13 -75 c6 -41 16 -237 21 -435 10 -396 18 -472 60 -575 10 -25 22
-67 28 -95 5 -27 17 -78 26 -112 8 -34 24 -113 35 -175 19 -106 26 -124 112
-293 104 -204 160 -290 202 -312 38 -19 47 -7 47 65 0 37 -5 57 -18 70 -46 46
-66 222 -37 318 11 36 15 101 15 249 0 140 4 216 14 253 8 29 18 110 21 180 8
151 51 382 96 507 17 50 37 124 44 166 20 113 90 270 176 393 41 58 87 126
102 151 16 25 33 45 38 45 14 0 10 -93 -5 -116 -20 -28 -33 -83 -56 -234 -13
-88 -27 -146 -41 -169 -11 -19 -27 -72 -35 -117 -8 -45 -29 -137 -48 -205 -41
-148 -56 -227 -56 -288 0 -25 -7 -68 -15 -95 -23 -77 -20 -123 11 -151 15 -14
31 -25 35 -25 5 0 9 -8 9 -18 0 -31 21 -44 42 -25 10 9 18 21 18 26 0 6 8 19
17 29 10 11 26 35 38 55 23 40 98 74 118 54 6 -6 21 -11 34 -11 13 0 23 -3 23
-7 0 -18 -71 -460 -90 -564 -26 -143 -76 -338 -91 -355 -18 -22 20 -75 76
-106 28 -15 151 -73 275 -129 124 -56 338 -157 476 -224 l251 -122 7 -159 c4
-87 12 -190 17 -229 6 -38 13 -324 16 -635 5 -541 4 -571 -16 -715 -12 -82
-27 -172 -33 -200 -11 -54 -24 -365 -15 -365 3 0 32 7 64 15 39 10 108 15 221
15 l165 0 -6 53 c-37 311 -57 686 -57 1062 0 261 17 868 25 892 8 23 790 -411
1250 -694 184 -113 205 -127 205 -139 0 -6 16 -27 37 -47 l36 -37 -11 -65 c-6
-36 -20 -79 -33 -96 l-22 -31 -84 4 c-84 3 -85 3 -115 41 -28 34 -34 37 -84
37 -30 0 -54 -2 -54 -5 0 -16 35 -71 68 -107 54 -60 253 -148 335 -148 30 0
97 -70 97 -101 0 -32 -87 -115 -135 -128 -89 -24 -193 -4 -263 51 -23 18 -72
72 -110 120 -68 85 -70 87 -87 68 -10 -11 -26 -20 -35 -20 -10 0 -23 -7 -30
-15 -10 -12 -9 -20 4 -40 9 -13 16 -31 16 -40 0 -17 31 -66 90 -140 22 -27 40
-56 40 -62 0 -7 12 -13 28 -13 31 0 134 -58 192 -108 21 -17 46 -32 55 -32 9
0 30 -7 48 -16 26 -14 39 -15 77 -6 25 6 63 14 85 18 54 9 121 48 129 76 3 13
6 39 6 58 0 41 23 80 108 186 65 82 156 160 198 170 13 3 24 12 24 19 0 7 14
25 30 38 17 14 35 38 40 52 12 31 13 95 2 112 -4 6 -55 40 -112 75 -343 208
-1042 667 -1370 899 -96 69 -268 199 -381 289 -113 91 -221 176 -239 190 l-33
26 46 424 c58 525 90 859 118 1218 12 152 22 278 23 279 10 11 78 -25 118 -62
41 -39 51 -45 64 -34 10 8 12 15 4 23 -13 13 -13 113 1 193 11 62 20 76 36 50
4 -8 20 -22 36 -32 17 -11 27 -26 27 -41 0 -27 6 -30 25 -11 8 8 10 19 4 28
-5 10 -2 35 8 65 9 28 18 108 22 190 l6 140 48 54 c71 82 77 101 77 233 0 63
5 139 11 168 5 30 14 117 19 194 5 85 14 154 23 175 8 19 20 64 27 100 6 36
31 126 56 200 61 187 75 257 58 292 -20 39 -134 174 -368 438 -214 240 -275
315 -276 338 0 17 73 16 364 -4 175 -13 247 -14 268 -6 25 9 28 8 28 -9 0 -61
121 -480 212 -734 96 -269 188 -442 316 -594 128 -153 231 -292 238 -324 3
-15 26 -52 50 -82 25 -30 43 -59 40 -64 -3 -5 -17 -12 -30 -15 -29 -7 -106
-56 -106 -67 0 -5 32 -18 71 -30 82 -25 109 -19 137 31 14 25 23 30 55 30 26
0 37 -4 37 -15 0 -8 7 -15 15 -15 14 0 14 -3 2 -27 -8 -16 -17 -39 -20 -53 -4
-14 -26 -40 -49 -58 -172 -128 -214 -173 -178 -192 40 -21 73 -9 218 81 81 51
165 105 187 120 24 17 60 31 89 35 l48 7 -12 -24 c-7 -13 -35 -47 -62 -75 -26
-28 -48 -56 -48 -61 0 -6 -22 -44 -48 -84 -83 -127 -98 -158 -86 -177 20 -31
51 -25 96 16 24 21 67 52 97 68 71 38 141 102 196 178 24 35 65 76 92 93 55
36 277 237 309 279 12 16 49 60 83 98 34 38 78 94 98 125 20 31 73 97 118 146
44 50 95 108 113 131 18 23 45 47 59 55 14 7 29 24 34 36 5 13 17 23 28 23 17
0 18 -4 9 -42 -5 -24 -38 -129 -73 -234 -36 -105 -65 -198 -65 -207 0 -10 -17
-36 -39 -60 -33 -36 -39 -50 -44 -105 -10 -91 -54 -256 -86 -321 -37 -73 -67
-162 -97 -286 -13 -55 -47 -168 -74 -250 -28 -83 -57 -177 -65 -211 -8 -33
-36 -130 -63 -215 -28 -85 -53 -174 -57 -199 -3 -25 -24 -101 -45 -170 -21
-69 -59 -197 -84 -285 -25 -88 -71 -244 -101 -347 -58 -199 -75 -281 -75 -366
l0 -53 58 3 57 3 772 1925 771 1925 89 122 c215 300 273 401 328 573 72 223
24 552 -100 689 -48 53 -144 100 -231 113 -38 5 -111 19 -162 29 -51 10 -111
19 -133 19 -123 0 -476 -232 -552 -362 -13 -24 -32 -66 -41 -95 -10 -29 -37
-82 -62 -119 -52 -81 -67 -120 -89 -239 -9 -49 -34 -142 -57 -205 -22 -63 -60
-180 -85 -260 -70 -226 -134 -328 -274 -436 -99 -76 -160 -99 -259 -99 -74 0
-93 4 -152 32 -37 17 -87 50 -112 74 -57 51 -226 322 -251 399 -9 30 -27 71
-39 90 -37 57 -51 178 -51 435 l0 230 38 115 c97 292 111 394 79 585 -11 66
-27 133 -36 150 -14 27 -34 109 -66 270 -23 115 -101 298 -157 368 -23 29 -62
77 -86 107 -58 74 -160 158 -239 198 -43 21 -80 50 -111 86 -52 61 -113 94
-263 144 -159 53 -319 82 -457 82 -101 0 -132 4 -177 21 -49 19 -79 22 -285
25 -167 3 -245 0 -285 -10z m4095 -2189 c46 -92 49 -102 53 -190 l4 -93 -133
-132 c-128 -126 -136 -132 -175 -132 l-41 0 -7 92 c-4 50 -12 100 -18 112 -8
14 -8 21 0 24 8 2 8 11 1 28 -5 14 -9 52 -9 85 0 56 3 65 60 149 33 49 74 106
92 125 28 33 35 36 77 33 l46 -3 50 -98z m-4182 -2279 c-2 -131 -21 -263 -63
-430 -31 -122 -94 -309 -125 -368 -17 -32 -17 -34 1 -47 26 -19 64 -16 99 7
58 39 135 17 180 -52 l26 -40 -15 -101 c-8 -56 -17 -156 -20 -222 -4 -66 -13
-169 -21 -230 -11 -80 -15 -215 -15 -497 0 -214 -2 -388 -3 -388 -15 0 -67 34
-67 43 -1 16 -206 173 -310 237 -95 59 -230 166 -230 182 0 7 29 160 65 342
35 182 74 389 85 460 24 152 65 320 121 500 23 71 54 186 70 255 53 232 115
436 133 439 9 2 16 11 16 21 0 27 9 30 43 16 l32 -14 -2 -113z"/>
</g>
</svg>
