<?xml version="1.0" standalone="no"?>
<!DOCTYPE svg PUBLIC "-//W3C//DTD SVG 20010904//EN"
 "http://www.w3.org/TR/2001/REC-SVG-20010904/DTD/svg10.dtd">
<svg version="1.0" xmlns="http://www.w3.org/2000/svg"
 width="1037.000000pt" height="995.000000pt" viewBox="0 0 1037.000000 995.000000"
 preserveAspectRatio="xMidYMid meet">
<metadata>
Created by potrace 1.13, written by Peter Selinger 2001-2015
</metadata>
<g transform="translate(0.000000,995.000000) scale(0.100000,-0.100000)"
fill="#7fd1b8" stroke="none">
<path d="M4692 9915 c-6 -22 -15 -83 -20 -136 -8 -83 -15 -110 -56 -196 -25
-55 -46 -107 -46 -116 0 -23 -46 -40 -90 -34 -19 2 -88 25 -153 51 -83 32
-133 46 -167 46 -49 0 -138 15 -295 51 -136 31 -138 32 -160 67 -11 18 -36 52
-55 76 -19 23 -51 80 -70 126 l-35 83 -5 -129 c-3 -77 -10 -138 -18 -151 -21
-37 -61 -50 -173 -56 -107 -7 -411 -54 -527 -83 -86 -21 -152 -5 -212 52 -14
13 -44 30 -67 38 l-42 15 25 -47 c32 -59 28 -111 -12 -153 -15 -16 -32 -29
-38 -29 -6 0 -52 -25 -102 -55 -51 -30 -133 -71 -183 -90 -50 -19 -102 -42
-117 -51 -39 -26 -186 -52 -303 -53 -64 -1 -72 -3 -61 -16 7 -8 21 -15 30 -15
26 0 60 -47 60 -82 0 -24 -25 -53 -151 -176 -84 -81 -192 -196 -242 -255 -94
-113 -117 -130 -182 -143 -22 -4 -60 -20 -85 -35 -25 -15 -58 -31 -75 -35 -16
-4 -49 -15 -73 -26 l-44 -18 30 -25 c17 -14 41 -25 54 -25 13 0 34 -7 46 -16
21 -14 22 -22 22 -146 0 -94 -4 -137 -14 -156 -24 -44 -85 -207 -107 -287 -11
-42 -24 -130 -28 -202 -8 -118 -10 -128 -34 -149 -13 -11 -43 -24 -64 -27 -22
-4 -52 -16 -66 -27 -25 -20 -102 -158 -93 -167 2 -3 18 5 35 18 25 18 38 21
80 16 27 -3 58 -11 68 -18 36 -22 64 -99 74 -199 5 -52 14 -120 21 -150 7 -30
12 -85 13 -122 0 -66 -1 -68 -42 -110 -35 -36 -45 -55 -58 -113 -8 -38 -18
-81 -21 -95 -5 -22 0 -19 41 22 57 56 93 73 140 64 53 -10 88 -47 162 -169 84
-139 195 -288 262 -349 28 -26 51 -54 51 -62 0 -9 -9 -33 -21 -55 -21 -41 -28
-108 -15 -148 8 -26 26 -22 63 15 21 21 31 24 77 20 44 -4 69 -14 142 -63 133
-86 229 -172 403 -355 146 -156 181 -199 288 -359 47 -71 105 -203 128 -291
20 -77 18 -173 -3 -236 -17 -48 -85 -145 -143 -203 -121 -123 -315 -226 -462
-247 -49 -7 -225 8 -327 28 -129 24 -255 114 -327 231 -21 35 -44 72 -50 82
-58 92 -93 198 -93 285 0 25 -6 79 -14 120 -8 41 -20 125 -26 185 -11 111 -38
287 -45 293 -6 6 -42 -71 -54 -115 -11 -40 -54 -103 -71 -103 -4 0 -26 37 -48
83 -72 144 -123 231 -153 263 -27 28 -30 39 -44 165 -8 74 -24 172 -35 219
-16 62 -20 100 -15 140 16 138 17 150 7 150 -20 0 -33 -30 -58 -136 -22 -93
-26 -141 -31 -321 -3 -117 -9 -210 -14 -207 -8 5 -139 267 -139 278 0 3 -13
28 -30 55 -39 67 -113 327 -133 466 -2 17 -5 -87 -6 -230 -1 -271 6 -356 50
-570 20 -95 132 -449 149 -470 11 -14 50 -130 50 -150 0 -21 -39 -14 -132 25
-92 38 -186 107 -254 188 -73 85 -134 116 -134 68 0 -16 29 -61 83 -127 45
-56 110 -138 145 -183 89 -114 168 -192 232 -230 31 -18 102 -71 157 -118 56
-47 125 -100 153 -119 46 -31 50 -37 48 -69 l-3 -35 -110 -8 c-180 -13 -377
11 -525 64 l-55 19 25 -21 c80 -68 274 -156 380 -171 36 -6 111 -19 167 -29
78 -15 148 -19 300 -19 109 0 227 -5 263 -10 73 -12 244 -66 366 -116 72 -29
97 -34 230 -43 208 -14 346 -2 504 44 144 42 184 63 283 149 105 92 184 207
209 303 11 42 30 109 44 149 13 39 28 103 34 141 9 67 8 73 -45 246 -55 183
-68 208 -174 348 -23 30 -55 81 -72 114 -43 80 -117 172 -189 235 -93 80 -462
449 -505 505 -22 28 -87 100 -146 161 -83 87 -119 134 -164 215 -75 133 -88
168 -136 368 -47 201 -55 297 -40 506 20 274 53 388 188 660 185 371 269 481
493 647 125 92 132 96 330 191 153 74 237 101 468 152 277 61 471 68 709 25
205 -37 389 -109 564 -222 129 -82 403 -385 503 -554 62 -106 96 -270 96 -464
-1 -271 -76 -493 -240 -710 -72 -96 -189 -270 -224 -336 -17 -32 -75 -98 -151
-172 -68 -66 -151 -158 -185 -203 -34 -46 -78 -97 -97 -113 -65 -54 -235 -250
-294 -341 -107 -162 -203 -369 -345 -747 -63 -166 -70 -190 -110 -363 -47
-201 -71 -360 -84 -539 -23 -328 -41 -379 -200 -561 -85 -97 -124 -192 -135
-326 -4 -46 -13 -106 -20 -134 -7 -27 -16 -70 -20 -95 -14 -90 -37 -114 -150
-161 -124 -51 -218 -38 -250 34 -57 129 -79 189 -89 246 -9 53 -18 72 -47 103
-30 32 -42 38 -78 38 -31 0 -47 -6 -61 -23 -11 -12 -42 -47 -69 -77 -26 -30
-117 -172 -201 -315 -267 -454 -517 -811 -632 -903 -34 -27 -76 -64 -92 -81
-16 -17 -52 -38 -80 -48 l-51 -17 81 -14 81 -14 89 38 c112 48 156 73 151 88
-8 20 27 67 74 101 26 18 59 52 75 76 16 23 33 43 38 43 5 1 16 -18 25 -41 8
-24 21 -43 29 -43 12 0 13 -29 10 -172 -4 -145 -9 -186 -29 -253 -28 -92 -100
-202 -155 -235 -18 -12 -34 -25 -34 -29 0 -7 180 -35 185 -29 2 2 30 40 63 85
100 134 96 123 102 339 l5 191 30 36 c17 19 32 36 35 36 3 1 13 -12 23 -28 14
-24 17 -57 17 -203 0 -159 2 -179 26 -251 20 -59 32 -81 52 -91 15 -8 52 -40
82 -70 l55 -56 5 -91 5 -91 59 92 c49 77 60 102 64 146 l4 54 -32 0 c-44 0
-87 27 -106 69 -15 30 -16 64 -11 275 3 133 11 275 16 316 13 92 67 237 95
255 30 19 102 29 111 16 3 -6 39 -33 78 -60 40 -27 86 -63 102 -81 40 -43 213
-185 300 -245 39 -27 88 -64 109 -82 68 -57 113 -62 247 -27 20 6 38 48 85
204 20 69 48 160 60 204 13 43 24 89 24 102 0 31 33 64 66 64 14 0 34 4 44 10
24 13 48 4 55 -21 4 -10 31 -58 62 -106 30 -49 70 -117 88 -153 19 -36 52 -92
74 -125 26 -38 41 -71 41 -91 0 -22 13 -45 48 -85 26 -29 71 -83 99 -119 64
-81 102 -117 176 -165 43 -28 70 -57 111 -118 72 -110 96 -160 96 -201 0 -41
-8 -66 -22 -66 -6 0 -23 -11 -40 -25 -39 -33 -84 -32 -150 1 -61 31 -169 73
-215 84 -39 9 -39 9 35 -83 100 -124 227 -213 372 -263 56 -19 70 -29 97 -69
63 -91 51 -152 -34 -176 -43 -12 -52 -11 -107 10 -34 13 -81 27 -106 31 -25 5
-71 18 -103 30 -32 12 -60 20 -63 18 -2 -3 11 -25 31 -50 27 -36 55 -56 127
-92 147 -72 296 -127 363 -133 46 -4 66 -12 87 -31 33 -30 116 -218 102 -232
-5 -5 -45 -15 -88 -21 -98 -15 -164 -5 -358 55 l-143 44 97 -92 c84 -81 107
-97 175 -123 93 -36 378 -79 464 -69 30 3 128 9 219 15 170 9 200 15 200 35 0
18 -31 110 -41 120 -5 6 -9 23 -9 38 0 16 -5 28 -12 28 -26 0 -255 453 -302
597 -10 30 -16 76 -15 111 1 32 -1 64 -5 70 -9 14 -5 15 28 3 13 -6 44 -36 68
-67 40 -54 53 -62 176 -121 355 -170 736 -288 1077 -334 229 -31 732 -34 945
-6 505 68 960 227 1300 455 234 158 569 431 755 617 128 128 201 233 376 537
127 223 159 271 159 238 0 -6 15 -35 34 -64 29 -46 55 -108 73 -176 6 -22 39
35 64 109 32 96 30 234 -6 377 -46 178 -40 215 81 520 58 147 94 285 94 360 0
31 18 31 83 -2 34 -17 96 -70 180 -154 76 -75 126 -120 123 -107 -10 36 -34
166 -51 277 -10 58 -23 119 -30 135 -19 46 -106 145 -174 198 -38 30 -61 56
-61 68 0 11 -18 102 -41 202 -68 303 -90 410 -86 414 5 4 380 -91 423 -107 15
-6 29 -9 31 -6 9 8 -26 73 -73 136 -63 84 -359 383 -400 403 -36 19 -54 59
-54 122 0 34 -21 83 -104 247 -57 112 -107 221 -111 241 -6 29 -2 49 19 91 36
73 90 108 209 136 126 29 249 70 245 82 -2 5 -35 23 -73 40 -136 59 -181 69
-360 79 -93 5 -195 15 -225 22 l-55 12 -17 64 c-25 93 -72 187 -104 208 -20
13 -46 18 -89 17 -64 -1 -94 -11 -137 -45 -25 -21 -28 -21 -52 -6 -34 23 -44
45 -52 111 -8 65 -5 73 93 276 84 175 150 287 179 307 13 8 39 37 59 64 34 48
34 49 12 49 -37 0 -117 -48 -232 -139 -132 -103 -169 -141 -207 -209 -38 -66
-68 -82 -156 -82 -112 0 -129 6 -172 66 -30 40 -55 60 -106 85 -75 37 -89 54
-99 124 -9 64 -25 93 -74 138 -44 39 -90 53 -148 43 -21 -4 -72 -9 -113 -12
-67 -5 -77 -4 -94 15 -33 37 -31 102 9 266 20 83 48 187 62 232 45 138 17 122
-103 -58 -102 -155 -130 -225 -177 -454 -24 -116 -46 -180 -65 -190 -67 -37
-123 -59 -176 -67 -58 -10 -64 -9 -120 21 -32 17 -65 31 -72 31 -26 0 -64 -47
-64 -80 0 -48 -34 -106 -71 -119 -37 -13 -69 -7 -126 22 -38 19 -43 25 -43 57
0 58 35 110 128 193 151 135 142 124 142 172 l0 43 -30 -11 c-16 -6 -30 -15
-30 -19 0 -4 -8 -8 -18 -8 -10 0 -27 -6 -38 -14 -11 -8 -31 -12 -48 -9 -37 7
-63 63 -47 102 13 31 27 126 36 236 4 44 13 113 21 154 9 40 14 75 11 77 -2 2
-17 6 -33 10 -41 8 -94 -35 -94 -75 0 -39 -19 -90 -46 -128 -13 -17 -24 -41
-24 -53 0 -12 -13 -35 -30 -50 -28 -26 -30 -33 -30 -102 0 -41 -7 -97 -15
-124 -13 -44 -21 -53 -81 -89 -36 -22 -78 -50 -94 -62 -15 -13 -31 -23 -34
-23 -10 0 -7 122 5 185 13 71 37 121 76 157 113 107 143 144 143 175 l0 33
-43 -30 c-23 -17 -59 -33 -79 -36 l-36 -6 15 44 c17 46 14 80 -11 113 -14 17
-17 18 -26 5 -5 -8 -10 -25 -10 -38 0 -35 -37 -138 -90 -248 -32 -69 -63 -159
-95 -282 l-48 -180 -40 -5 c-47 -6 -52 -12 -60 -54 -6 -30 -4 -33 18 -33 23 0
25 -4 25 -48 0 -36 -14 -83 -56 -183 -30 -73 -73 -185 -95 -247 -21 -63 -48
-125 -59 -139 -11 -14 -20 -35 -20 -47 0 -31 -80 -162 -139 -229 -76 -87 -85
-109 -84 -202 0 -44 4 -110 8 -147 8 -70 -3 -122 -35 -168 -10 -14 -21 -39
-24 -56 -4 -17 -25 -48 -47 -70 -22 -21 -49 -59 -60 -83 -33 -74 -24 -106 32
-121 50 -14 119 -78 119 -111 0 -14 -13 -46 -29 -71 l-29 -46 23 -12 c13 -7
29 -26 35 -43 29 -84 -6 -164 -82 -186 -23 -7 -81 -30 -127 -52 -46 -21 -90
-39 -98 -39 -7 0 -16 -7 -19 -15 -4 -8 -14 -15 -23 -15 -11 -1 -8 -7 12 -22
31 -23 77 -109 77 -144 0 -38 -17 -71 -59 -113 -22 -22 -47 -56 -55 -76 -8
-19 -21 -35 -28 -35 -16 0 -88 -58 -88 -70 0 -5 15 -12 34 -15 30 -6 35 -12
49 -58 9 -29 18 -63 21 -77 11 -48 44 -90 71 -90 l25 0 0 130 c0 117 2 132 20
150 22 22 32 24 58 11 84 -45 152 -64 152 -41 0 6 20 15 45 22 41 11 45 15 45
43 0 27 5 23 44 -44 25 -41 52 -93 62 -115 23 -53 21 -51 39 -36 12 10 15 35
15 117 0 89 2 105 18 110 19 8 33 18 68 50 14 13 37 29 52 37 51 26 75 62 80
118 4 42 12 62 42 98 23 29 42 68 54 110 25 91 71 174 136 241 52 53 59 57
114 63 32 4 61 4 64 2 2 -3 -5 -20 -16 -38 -38 -62 -53 -201 -33 -293 5 -22
11 -132 13 -243 l3 -204 -29 -25 c-41 -35 -70 -77 -111 -160 -20 -39 -42 -77
-51 -83 -17 -15 -68 -23 -146 -24 -49 0 -58 -2 -58 -18 0 -10 7 -18 15 -18 8
0 15 -6 15 -14 0 -8 16 -23 36 -35 29 -17 35 -26 32 -48 -7 -62 -135 -100
-302 -90 l-96 5 21 -40 c11 -21 53 -74 94 -116 l73 -77 -10 -127 c-11 -124
-10 -127 13 -175 31 -61 72 -86 128 -77 23 4 41 12 41 19 0 6 -18 26 -40 44
-37 30 -40 35 -40 84 0 109 20 121 86 56 48 -47 78 -47 95 -1 12 32 -12 88
-42 97 -22 7 -59 65 -59 91 0 23 55 84 75 84 22 0 44 40 55 101 26 135 150
301 290 387 19 11 66 52 104 90 l68 70 -21 47 c-12 26 -21 52 -21 58 0 5 -11
33 -25 61 -13 28 -34 98 -45 155 -12 58 -24 109 -27 114 -3 4 3 17 12 27 16
17 35 90 55 209 13 74 47 119 145 189 81 57 86 60 165 66 67 6 87 4 118 -11
48 -23 72 -71 72 -145 0 -47 -4 -59 -22 -72 -12 -9 -31 -16 -42 -16 -20 0 -20
0 -1 -13 83 -57 139 22 121 170 -6 50 -4 56 22 83 33 33 108 58 125 41 6 -6
21 -11 34 -11 21 0 23 5 23 45 0 35 4 47 21 56 38 20 80 28 102 20 12 -5 40
-14 62 -21 22 -7 49 -20 60 -30 11 -9 51 -32 89 -51 43 -21 85 -52 112 -83 45
-49 114 -162 114 -185 0 -7 23 -67 51 -133 28 -65 56 -138 64 -161 7 -23 27
-82 44 -130 34 -96 57 -285 45 -364 -12 -81 -140 -513 -160 -539 -14 -19 -33
-28 -74 -34 -30 -5 -70 -12 -87 -16 -28 -5 -37 -2 -62 25 -17 18 -40 58 -53
89 -23 59 -26 127 -17 482 2 47 -1 111 -6 142 l-8 58 -59 0 c-70 0 -93 -10
-102 -46 -7 -25 -10 -26 -49 -20 -47 7 -87 44 -87 80 0 29 -34 60 -83 76 -21
6 -39 10 -41 8 -3 -5 -27 -119 -33 -163 -7 -51 -34 -88 -77 -109 -48 -22 -86
-20 -144 9 -28 14 -57 25 -66 25 -9 0 -44 -39 -78 -87 -35 -47 -72 -94 -83
-102 -33 -26 -112 -110 -191 -203 -59 -70 -74 -94 -74 -120 0 -42 14 -61 138
-188 101 -103 122 -111 44 -16 -57 69 -69 153 -32 226 30 58 125 161 177 191
46 27 70 28 108 2 11 -7 27 -13 36 -13 19 0 34 -56 23 -84 -4 -10 -2 -27 4
-39 6 -12 16 -40 22 -62 5 -22 24 -56 40 -75 l29 -35 1 63 c0 132 86 216 201
196 50 -9 52 -11 93 -79 24 -38 48 -85 54 -104 19 -53 15 -136 -8 -181 -27
-52 -25 -86 5 -121 48 -58 48 -191 1 -254 -36 -46 -111 -95 -147 -95 -15 0
-31 -4 -34 -10 -9 -14 -70 -12 -108 4 -18 7 -54 30 -81 51 l-49 37 7 -57 c3
-31 13 -69 21 -85 15 -30 103 -110 121 -110 5 0 32 11 60 23 54 26 134 48 134
37 0 -4 -30 -35 -67 -69 -78 -71 -72 -65 -155 -151 -94 -98 -171 -144 -307
-186 -64 -19 -152 -49 -196 -65 -147 -56 -171 -60 -415 -71 -473 -22 -751 33
-1123 220 l-171 86 -116 116 c-80 79 -129 138 -158 188 -50 88 -54 130 -17
201 l26 49 -3 256 -3 256 -79 79 c-43 44 -102 92 -130 107 -58 30 -155 125
-181 174 -13 26 -15 37 -5 54 7 15 8 30 1 47 -32 86 -36 300 -10 584 8 92 36
274 44 283 3 3 74 -26 106 -43 24 -13 28 -13 33 0 3 8 2 15 -3 15 -15 0 -41
78 -41 123 0 52 49 159 83 182 14 8 44 44 68 78 23 34 61 83 85 108 23 25 45
55 48 67 6 18 11 20 34 11 15 -6 43 -26 62 -44 35 -34 100 -58 100 -37 0 6 -4
13 -9 17 -5 3 -28 33 -50 66 -37 55 -41 67 -41 123 1 73 18 115 82 193 109
134 159 200 170 225 14 31 56 58 91 58 13 0 46 -12 72 -27 37 -20 66 -28 126
-31 l78 -4 -26 63 c-14 35 -31 71 -38 79 -7 8 -16 31 -20 50 -4 19 -20 56 -36
83 -43 71 -41 134 10 235 21 42 60 130 85 195 81 206 72 197 210 197 134 0
208 16 276 60 44 28 100 85 100 102 0 10 -163 66 -225 77 -33 6 -75 22 -95 35
-32 21 -37 31 -49 92 -7 38 -17 92 -23 120 -7 36 -7 65 1 103 6 28 11 114 11
189 l0 137 107 100 c252 233 444 430 464 474 10 24 18 45 17 46 -2 2 -42 -21
-90 -50 -47 -29 -169 -85 -270 -125 -101 -40 -200 -82 -221 -92 -22 -11 -40
-18 -41 -16 -1 2 -7 19 -14 38 -66 208 -142 402 -195 504 l-40 78 18 47 c18
46 38 112 90 286 35 117 52 363 28 408 -8 16 -16 27 -19 24 -2 -2 -16 -44 -30
-93 -39 -136 -121 -296 -194 -376 l-61 -68 -32 16 c-18 9 -54 34 -82 56 -69
54 -146 104 -173 112 -13 4 -50 34 -82 67 -32 32 -66 59 -75 59 -10 0 -15 9
-15 28 0 15 -8 41 -19 57 -14 23 -19 58 -23 145 -4 90 -11 132 -32 190 -37
103 -54 158 -66 205 -5 22 -16 49 -24 60 -13 18 -15 17 -24 -20z m3388 -2969
c0 -13 7 -43 15 -66 8 -23 15 -57 15 -76 l0 -33 -42 15 c-23 8 -75 17 -115 21
l-73 6 -2 31 c-2 51 3 80 15 93 18 17 75 31 135 32 48 1 52 -1 52 -23z m-1406
-130 c19 -8 37 -19 40 -25 10 -16 -20 -162 -49 -232 -14 -34 -25 -68 -25 -75
0 -24 -54 -64 -127 -94 -39 -17 -79 -30 -88 -30 -15 0 -15 2 -1 22 9 12 16 42
16 67 0 24 7 96 17 160 20 145 41 184 110 205 61 19 67 19 107 2z m190 -1084
c16 -70 31 -166 34 -213 4 -83 3 -90 -27 -146 -18 -33 -68 -98 -111 -144 l-80
-84 -24 29 c-15 18 -26 46 -29 75 -2 25 -10 93 -17 151 l-13 105 38 65 c54 92
186 290 193 290 4 0 20 -57 36 -128z"/>
</g>
</svg>
