<?xml version="1.0" standalone="no"?>
<!DOCTYPE svg PUBLIC "-//W3C//DTD SVG 20010904//EN"
 "http://www.w3.org/TR/2001/REC-SVG-20010904/DTD/svg10.dtd">
<svg version="1.0" xmlns="http://www.w3.org/2000/svg"
 width="848.000000pt" height="969.000000pt" viewBox="0 0 848.000000 969.000000"
 preserveAspectRatio="xMidYMid meet">
<metadata>
Created by potrace 1.13, written by Peter Selinger 2001-2015
</metadata>
<g transform="translate(0.000000,969.000000) scale(0.100000,-0.100000)"
fill="#e4cd7f" stroke="none">
<path d="M2428 9675 c-26 -9 -56 -27 -68 -43 -123 -157 -166 -234 -177 -309
-4 -29 -14 -54 -26 -64 -14 -11 -21 -32 -25 -71 -3 -39 -9 -58 -23 -66 -10 -7
-19 -9 -19 -4 0 4 -16 32 -35 62 -19 30 -35 64 -35 75 0 29 -28 65 -49 65 -35
0 -51 -68 -61 -264 -6 -133 -13 -195 -27 -235 l-19 -54 -31 39 c-47 60 -62 96
-69 168 -7 69 -19 86 -62 86 -27 0 -52 -56 -52 -117 0 -104 66 -290 141 -399
35 -51 314 -344 363 -381 l29 -22 -54 -26 c-30 -13 -62 -25 -72 -25 -21 0
-153 -65 -162 -80 -4 -6 -28 -21 -55 -35 -57 -29 -153 -139 -174 -200 -25 -70
-39 -180 -32 -242 18 -149 18 -183 1 -282 -9 -57 -15 -120 -11 -139 5 -33 1
-39 -41 -78 -49 -45 -118 -75 -217 -94 -91 -18 -358 -162 -456 -245 -91 -78
-96 -102 -34 -176 40 -48 49 -76 40 -124 -7 -35 -46 -75 -75 -75 -28 0 -161
-59 -243 -108 -201 -119 -354 -258 -429 -388 -16 -29 -35 -54 -43 -57 -25 -10
-28 -67 -6 -109 11 -21 20 -45 20 -54 0 -8 17 -41 39 -72 43 -64 128 -199 151
-241 28 -49 54 -78 132 -147 110 -96 142 -173 103 -252 -10 -20 -19 -86 -26
-194 -14 -212 -13 -261 6 -388 14 -96 91 -360 105 -360 8 0 134 278 153 337 8
23 51 109 95 191 103 188 128 244 135 310 10 85 41 129 122 173 39 21 82 38
98 39 23 0 27 4 27 28 0 15 -5 47 -11 71 -5 24 -7 51 -4 61 6 18 101 66 153
76 41 8 67 -21 127 -143 30 -60 61 -105 90 -132 45 -41 146 -97 225 -124 25
-9 65 -24 90 -35 25 -11 68 -23 95 -27 176 -25 351 -75 371 -106 13 -22 142
-473 165 -579 15 -69 22 -147 26 -288 6 -222 1 -218 94 -78 70 104 161 281
225 438 40 98 47 126 66 276 11 92 25 178 32 192 7 16 23 27 46 31 22 5 46 20
65 43 16 20 38 36 48 36 28 0 77 29 77 45 0 26 38 35 152 35 68 0 135 6 168
15 30 8 74 15 96 15 56 0 276 -38 327 -57 23 -8 66 -21 95 -29 103 -27 175
-77 224 -153 31 -50 90 -231 108 -331 6 -36 20 -98 31 -139 24 -95 24 -160 -1
-291 -11 -58 -25 -136 -30 -175 -15 -101 -38 -165 -81 -226 -20 -30 -73 -126
-118 -214 -82 -163 -125 -228 -231 -347 -64 -71 -209 -175 -312 -223 -50 -24
-71 -44 -168 -164 -60 -75 -119 -142 -131 -149 -12 -8 -62 -29 -112 -49 -49
-19 -119 -48 -155 -65 -48 -23 -85 -32 -136 -36 -65 -4 -76 -1 -130 27 -32 17
-64 31 -71 31 -8 0 -29 8 -47 19 -18 10 -63 26 -99 35 l-66 17 -6 87 c-3 48
-17 128 -31 179 -46 167 -105 273 -230 412 -36 41 -90 103 -119 138 l-52 65
-6 -194 c-7 -204 -32 -361 -85 -529 -30 -94 -51 -122 -104 -138 -75 -22 -209
-25 -260 -6 -25 9 -83 23 -130 30 -88 13 -180 35 -262 61 -44 14 -48 19 -68
72 -55 146 -72 253 -79 506 l-6 239 -76 -89 c-114 -133 -229 -322 -289 -471
-7 -18 -19 -33 -26 -33 -11 0 -14 -19 -14 -85 l0 -85 -40 -20 c-21 -11 -45
-20 -53 -20 -19 0 -44 -30 -52 -61 -7 -27 -73 -89 -95 -89 -7 0 -24 -6 -38
-14 -15 -7 -65 -32 -112 -54 -149 -71 -279 -214 -322 -355 -17 -57 -20 -85
-15 -166 7 -123 22 -170 56 -177 14 -3 33 -9 42 -14 18 -9 48 5 67 32 7 10 19
18 26 18 16 0 26 22 26 54 0 30 50 107 89 137 18 13 50 39 72 58 21 18 39 30
39 27 0 -4 -13 -57 -30 -119 -40 -153 -58 -262 -69 -431 -19 -283 26 -503 144
-704 30 -52 40 -61 80 -72 25 -7 45 -17 45 -21 0 -5 5 -9 11 -9 14 0 48 -41
49 -60 2 -22 29 41 30 68 0 13 -6 36 -14 50 -31 57 -46 132 -46 224 0 51 -5
136 -12 188 -11 89 -10 102 11 180 13 47 42 128 66 181 24 53 49 117 56 143 6
26 15 44 19 39 18 -20 50 -128 50 -171 0 -61 22 -140 57 -211 37 -75 260 -301
297 -301 12 0 6 37 -9 56 -8 10 -14 30 -15 44 0 14 -8 61 -19 105 -25 103 -59
278 -65 332 -4 39 0 46 37 87 31 32 57 49 100 62 57 18 58 18 72 -3 32 -46 83
-64 337 -119 303 -65 391 -87 466 -117 47 -19 58 -28 60 -49 2 -15 14 -34 28
-42 21 -14 24 -24 24 -76 0 -41 -7 -76 -24 -113 -22 -50 -30 -58 -100 -96 -50
-28 -82 -53 -91 -72 -9 -16 -24 -29 -34 -29 -39 0 -51 -11 -51 -49 0 -63 14
-73 90 -60 36 6 79 14 96 20 17 5 45 9 63 9 22 0 55 16 109 54 47 32 92 56
115 59 50 8 64 20 92 82 25 57 77 121 105 130 10 3 20 15 22 26 2 16 12 6 44
-43 78 -120 76 -109 64 -286 -13 -194 -16 -207 -49 -228 -14 -9 -43 -34 -63
-55 -21 -22 -45 -39 -53 -39 -8 0 -15 -7 -15 -15 0 -9 -9 -15 -25 -15 -24 0
-65 -31 -65 -49 0 -24 16 -43 49 -60 50 -26 99 -32 146 -20 22 5 73 14 113 18
40 5 80 15 90 23 13 12 55 17 172 22 85 3 187 12 225 21 39 8 94 14 123 15 34
0 59 6 68 15 21 20 64 19 79 -2 12 -16 16 -16 67 0 87 27 98 24 143 -39 101
-141 319 -287 471 -315 85 -16 193 3 289 50 81 40 195 131 195 156 0 8 24 38
53 67 46 45 60 70 95 161 23 59 42 121 42 137 l0 30 93 0 c114 0 136 16 129
91 -2 21 -117 81 -196 104 -49 14 -66 15 -99 5 -66 -20 -138 -97 -191 -205
-27 -56 -55 -99 -68 -106 -13 -7 -54 -14 -93 -17 -90 -6 -113 10 -128 89 -21
105 -15 166 26 251 l37 76 172 108 c95 60 200 130 234 156 137 104 323 201
458 238 67 19 99 21 226 18 l147 -3 95 -47 c277 -138 357 -268 434 -708 18
-104 24 -160 19 -199 -6 -50 -12 -59 -75 -121 -37 -38 -78 -74 -91 -81 -36
-19 -170 -18 -200 2 -38 25 -107 120 -111 154 -4 30 -4 30 -16 -10 -16 -53
-15 -144 3 -175 12 -23 11 -27 -12 -52 l-25 -26 53 -31 c56 -32 166 -71 201
-71 18 0 57 10 216 56 38 11 52 20 52 33 0 12 10 21 25 25 14 4 33 14 43 24
10 9 31 24 47 32 16 8 42 35 59 59 17 25 44 60 60 78 23 28 31 50 43 131 8 53
26 129 39 169 22 66 24 86 24 285 1 246 12 321 50 326 51 8 90 -8 114 -46 29
-46 223 -157 366 -209 160 -59 368 -56 460 6 59 39 156 163 176 224 17 49 23
171 10 184 -3 3 -24 -13 -45 -35 -85 -88 -215 -152 -307 -152 -70 0 -180 37
-218 74 -18 17 -47 43 -64 59 -36 33 -43 60 -24 106 8 19 17 80 21 135 9 118
21 146 98 230 31 33 88 101 129 151 l73 91 -9 85 c-9 90 4 394 20 466 6 23 10
55 10 71 0 33 94 315 135 407 63 140 75 225 45 328 -12 41 -26 45 -92 27 -40
-11 -95 -67 -102 -103 -27 -142 -26 -138 -87 -196 -49 -47 -60 -64 -67 -102
-11 -55 -45 -107 -75 -114 -12 -2 -53 -6 -92 -7 -40 -2 -85 -11 -104 -21 -72
-36 -137 -13 -147 53 -7 40 21 85 62 100 13 5 24 15 24 22 0 7 15 20 33 28 22
10 35 25 41 48 5 17 12 32 16 32 28 0 219 294 259 399 26 69 90 152 146 191
169 116 331 124 418 20 26 -30 32 -47 58 -160 27 -118 1 -258 -91 -490 -65
-163 -101 -275 -127 -400 -23 -109 -26 -482 -4 -543 7 -22 43 -70 79 -109 l66
-70 117 4 c131 3 153 13 192 78 25 44 18 80 -18 97 -23 10 -27 9 -41 -13 -14
-20 -24 -24 -69 -24 -48 0 -56 3 -81 32 -62 74 -82 188 -50 275 8 21 33 98 56
170 28 90 72 194 136 320 105 209 141 316 151 457 4 60 11 92 21 100 38 28 96
94 113 129 11 20 42 72 69 114 28 42 77 131 110 199 54 110 60 128 60 185 0
64 0 64 -68 150 -38 48 -77 108 -87 135 -10 27 -42 93 -72 147 -58 106 -64
139 -39 218 17 56 46 182 46 203 0 9 9 24 20 33 26 23 26 77 0 134 -17 38 -20
66 -20 217 0 195 -3 200 -63 128 -45 -55 -125 -95 -203 -103 -33 -3 -67 -10
-76 -15 -35 -17 -53 -70 -58 -167 l-5 -94 -34 -18 c-38 -20 -71 -11 -71 20 0
10 -9 30 -20 44 -12 14 -20 40 -20 61 0 20 -4 36 -9 36 -17 0 -21 32 -6 53 8
12 15 29 15 39 0 9 9 43 21 74 23 61 107 155 200 225 28 20 91 72 140 115 66
58 89 84 89 102 0 14 14 38 35 59 l35 35 0 97 c0 92 -1 99 -25 119 -19 16 -30
20 -43 13 -30 -15 -122 -20 -122 -5 0 7 -8 20 -17 30 -15 15 -19 44 -23 193
-6 178 -18 241 -46 241 -10 0 -14 -12 -14 -40 0 -44 -40 -99 -91 -126 -32 -16
-154 -19 -193 -4 -24 9 -26 14 -26 78 0 63 3 72 35 114 68 86 93 223 64 346
-17 77 -71 190 -95 201 -21 9 -22 7 -29 -52 -17 -157 -124 -266 -335 -342 -60
-22 -86 -26 -130 -21 -82 8 -117 23 -135 58 -14 30 -14 33 11 65 14 18 34 33
45 33 10 0 19 6 19 14 0 8 22 34 49 58 66 57 111 164 111 262 0 76 -14 117
-57 167 -17 19 -33 47 -37 62 -9 37 -22 27 -29 -23 -10 -78 -106 -229 -177
-281 -33 -25 -231 -74 -353 -89 -92 -11 -99 -10 -130 9 -51 32 -69 56 -74 105
l-5 44 46 7 c37 6 51 4 66 -10 17 -15 31 -17 101 -11 l82 8 58 61 c33 34 59
67 59 74 0 7 8 16 17 22 16 8 16 20 6 148 -7 76 -15 145 -18 155 -5 13 -18 8
-73 -34 -37 -28 -92 -74 -123 -103 -77 -70 -126 -97 -247 -135 -91 -28 -113
-31 -175 -26 -110 9 -110 9 -138 -23 -21 -26 -33 -31 -67 -31 l-42 0 0 67 c0
64 1 67 38 102 58 55 148 90 199 76 51 -14 117 -8 170 15 67 28 84 47 60 65
-16 12 -12 16 40 49 31 20 65 36 74 36 19 0 74 71 108 138 12 24 37 60 55 80
45 51 55 71 62 136 4 31 11 59 15 62 16 10 9 39 -12 52 -19 12 -25 10 -56 -20
-18 -18 -36 -43 -39 -55 -4 -14 -14 -23 -25 -23 -16 0 -19 7 -19 41 0 23 7 69
16 103 17 66 15 151 -9 301 -11 72 -15 81 -43 97 -60 35 -74 12 -74 -125 l0
-89 -42 7 c-77 13 -102 52 -111 170 -6 75 -24 138 -77 275 -28 72 -45 89 -151
150 -103 59 -129 60 -129 4 0 -22 5 -34 13 -34 8 0 42 -26 75 -58 l62 -57 0
-186 c0 -176 -1 -190 -24 -241 -39 -88 -83 -155 -182 -278 -182 -225 -215
-251 -317 -237 -70 9 -77 27 -77 184 l0 136 -44 43 c-39 40 -48 44 -90 44 -43
0 -47 -2 -44 -22 2 -15 16 -29 39 -40 22 -10 41 -29 49 -48 13 -31 12 -32 -41
-86 l-53 -54 -83 0 -83 0 -20 40 c-24 47 -26 83 -5 100 25 21 55 136 55 212 0
107 -26 157 -109 212 -64 42 -103 58 -167 69 -41 8 -83 -19 -122 -78 -34 -51
-35 -98 -4 -122 16 -13 18 -11 63 105 7 18 16 22 52 22 58 0 82 -20 102 -84
23 -73 15 -98 -48 -146 -69 -52 -126 -71 -213 -73 -121 -2 -163 48 -149 178
16 138 11 205 -19 266 -40 80 -98 143 -175 189 -38 22 -73 51 -79 64 -7 15
-22 26 -45 30 -50 9 -155 -21 -195 -55 -18 -16 -36 -29 -41 -29 -20 0 -86 -79
-112 -134 -33 -69 -39 -153 -15 -210 13 -32 13 -36 -8 -55 -27 -25 -106 -28
-178 -7 -25 8 -81 18 -125 21 -76 7 -80 6 -163 -32 -47 -22 -104 -45 -127 -52
-54 -15 -155 -94 -213 -167 -25 -32 -62 -66 -83 -77 -41 -21 -65 -18 -222 31
-323 100 -475 328 -479 717 -2 224 62 370 189 430 43 20 55 31 55 48 0 57 -65
79 -152 52z m1773 -711 c59 -27 64 -30 79 -60 17 -35 18 -123 1 -181 -14 -51
-49 -73 -113 -73 -38 0 -49 5 -85 43 -48 49 -83 115 -83 155 0 57 80 132 141
132 14 0 41 -7 60 -16z m-1951 -1036 c0 -30 7 -61 15 -72 10 -13 13 -32 9 -56
-5 -32 -2 -39 33 -71 l39 -36 -25 -16 c-14 -10 -41 -28 -60 -42 -19 -14 -47
-25 -63 -25 -44 0 -65 -16 -72 -53 -3 -18 -19 -45 -34 -60 -26 -25 -29 -26
-50 -11 -20 13 -22 24 -22 95 0 52 5 90 15 109 9 17 24 74 35 127 12 54 27
105 36 113 16 16 98 48 127 49 14 1 17 -8 17 -51z m2440 -1479 c60 -15 322
-11 344 6 28 21 36 10 36 -49 0 -71 -19 -93 -124 -145 -46 -23 -158 -89 -248
-148 -96 -63 -190 -116 -228 -130 -97 -34 -242 -31 -543 11 -53 8 -107 9 -135
5 -26 -4 -79 -8 -118 -8 -89 -1 -110 15 -99 77 3 22 14 47 23 55 9 7 87 35
172 61 85 26 280 97 433 158 152 60 299 113 325 118 49 8 103 4 162 -11z
m3372 -2089 c16 -16 34 -30 39 -30 10 0 13 -189 3 -215 -11 -27 -60 -45 -121
-45 -65 0 -66 1 -111 53 -45 53 -44 98 4 160 20 26 40 47 45 47 4 0 21 14 37
30 17 17 40 30 52 30 12 0 35 -13 52 -30z"/>
</g>
</svg>
