<!-- Generated by IcoMoon.io -->
<svg version="1.1" xmlns="http://www.w3.org/2000/svg" width="1011" height="1024" viewBox="0 0 1011 1024">
<title></title>
<g id="icomoon-ignore">
</g>
<path fill="#eee" d="M404.281 50.978c-21.278 19.061-42.113 57.184-51.865 94.864-10.196 39.010-6.649 83.782 10.639 148.502 16.845 63.39 26.154 85.998 48.762 115.699 15.515 20.391 16.402 23.494 10.639 31.030-5.763 8.423-7.093 8.423-64.72-6.206-65.164-16.402-84.225-24.824-109.493-47.432-32.36-29.257-55.855-99.297-52.308-156.481 2.216-35.020 6.649-38.566 50.535-39.896 29.257-0.887 35.906 0.443 54.081 11.082 11.526 6.649 25.711 15.958 31.474 21.278 10.196 8.866 10.639 8.866 7.536 0.443-2.216-4.876-5.319-15.072-7.536-23.051-9.752-32.36-59.401-57.184-107.719-53.638-50.535 4.433-68.71 21.278-72.256 66.937-3.99 49.205 13.742 104.173 46.545 144.513 14.629 17.732 15.072 19.061 4.876 15.958-5.763-1.773-12.412-6.206-15.072-9.309-11.969-15.515-50.092-19.505-83.339-7.979-23.051 7.536-57.628 36.35-67.38 55.411-13.742 26.597-5.319 55.411 28.371 93.091 23.051 26.597 54.081 46.545 94.421 60.287 29.7 10.196 39.010 11.082 114.369 11.969 75.803 0.443 83.782-0.443 105.503-9.752 28.814-11.969 29.257-11.969 35.020 0 3.99 8.866-0.887 18.175-33.69 67.823-31.030 46.545-42.999 60.731-62.504 74.473-41.669 28.371-103.73 32.36-168.45 10.639-37.68-12.855-41.226-19.948-31.030-59.401 6.649-23.494 11.969-33.247 29.257-50.535 11.969-11.969 25.268-23.051 30.587-24.824 7.536-2.66 6.649-3.546-5.763-6.206-49.205-10.196-103.73 47.875-104.616 112.152-0.443 41.669 19.505 60.287 77.576 72.7 60.287 12.855 112.152 0.443 181.749-42.556 54.081-33.69 85.998-60.731 106.39-89.988 13.742-19.505 20.391-25.268 27.927-24.381 7.979 1.33 9.752 5.319 12.412 25.711 1.33 13.299 2.66 47.432 3.103 75.803 0.443 56.741-4.433 77.132-24.381 105.060-30.144 41.226-111.266 84.668-151.162 81.122-6.206-0.443-25.711-40.783-29.257-60.731-2.216-12.855 4.876-56.741 12.412-74.029 2.66-6.649 0.887-6.206-12.412 2.216-48.319 31.030-50.978 113.926-5.319 161.801l19.505 20.391 25.711-2.66c60.731-6.206 125.008-56.741 157.368-123.235 29.7-60.731 44.772-112.152 46.989-162.244 1.773-40.339 2.66-45.216 11.082-47.432 5.763-1.33 11.526 1.33 16.402 7.536 4.433 5.319 23.051 28.814 41.669 51.865 36.793 46.102 48.762 67.38 53.638 96.637 6.649 40.783-14.185 105.060-49.648 151.605-21.278 27.484-24.381 28.814-48.762 15.958-35.020-17.732-56.741-46.102-67.823-89.101l-3.546-13.299-0.443 11.969c-0.443 6.649-2.216 13.299-4.876 14.629-6.649 3.99-5.319 39.010 2.216 57.184 9.309 22.165 35.463 50.092 57.184 61.617 11.082 5.319 27.041 9.309 41.226 9.309 19.505 0.443 24.824-1.33 36.793-12.855 37.236-35.463 57.628-86.885 57.628-145.842l0.443-35.906 8.423 10.639c4.876 5.319 7.536 11.969 6.206 14.185-5.319 8.866 21.721 36.35 46.545 47.432 47.875 22.165 109.936 11.082 127.224-22.165 5.763-11.082 7.093-23.051 5.319-57.184-1.773-35.463-4.433-47.432-15.515-70.926-19.948-42.113-42.113-69.153-87.771-105.503-53.638-43.442-88.658-63.834-119.245-70.926-27.041-6.206-29.7-7.979-26.597-20.835 2.216-8.423 14.185-13.742 108.163-46.989 52.752-19.061 80.679-15.072 141.41 20.391 27.484 16.402 75.803 75.359 75.803 93.534 0 9.309-29.7 39.010-49.648 49.205-7.979 3.99-29.257 8.866-47.875 10.196-23.938 2.216-30.587 3.99-23.051 6.649 5.319 1.773 9.752 4.876 9.752 6.649 0 2.216 6.206 6.206 13.299 9.309 18.618 7.536 64.72 3.546 86.885-7.979 23.494-11.969 48.762-40.339 54.525-61.174 12.412-44.772-52.308-115.699-127.668-139.636-23.494-7.979-43.886-9.752-106.833-11.526-71.37-2.216-79.792-1.33-104.173 7.093-14.629 5.319-30.144 10.639-34.133 12.412-5.319 1.33-8.423-0.887-10.196-8.423-2.216-8.866 3.546-21.278 26.154-57.184 39.453-62.061 54.525-79.349 82.895-94.864 21.278-11.526 28.814-13.299 71.37-14.629 39.010-1.33 53.195 0 78.019 7.536 39.896 11.969 46.989 19.948 42.999 47.875-1.773 11.526-5.763 27.484-8.866 35.020-6.206 15.515-32.36 42.999-51.865 54.968l-12.855 7.979h21.721c14.185 0 27.927-3.546 39.010-9.752 48.762-27.484 74.473-109.493 45.659-146.286-19.505-24.824-101.513-40.783-150.719-29.257-34.133 7.979-62.504 21.278-108.163 50.978s-86.885 67.38-100.627 91.761c-10.196 17.732-12.855 19.061-25.268 12.412-7.093-3.546-8.423-13.299-11.082-71.813-3.103-75.803 0.887-98.41 22.608-130.771 26.154-38.566 97.081-81.122 137.42-82.452 20.835-0.887 20.835-0.887 32.36 21.278 9.309 18.618 11.082 27.927 10.639 57.628 0 25.268-2.216 39.896-7.979 50.535l-7.979 15.072 19.948-16.402c23.494-19.505 34.133-42.556 34.133-74.916 0-32.803-11.082-62.504-31.474-83.782-16.402-17.732-17.288-17.732-42.556-15.958-32.803 2.216-78.019 23.051-105.946 48.762-30.587 28.371-50.978 61.617-74.029 121.905-22.608 59.401-31.030 97.524-29.257 131.214 1.33 19.061 0 22.608-7.979 25.711-10.639 3.99-11.969 2.66-60.731-58.071-42.556-52.752-53.195-78.906-50.092-121.905 2.66-39.453 24.381-96.637 47.875-126.338 19.505-24.824 26.597-26.597 51.422-12.412 33.247 18.618 49.648 39.896 65.607 82.895 5.763 15.072 6.206 15.072 6.206 3.99 0.443-6.649 2.66-13.299 5.319-15.072 7.979-4.433 0.443-45.659-11.526-66.494-19.948-34.577-59.401-58.958-93.977-59.401-15.515 0-22.165 2.66-35.906 15.515zM246.913 406.497c41.669 36.35 87.771 66.050 115.255 74.029 14.185 4.433 28.371 8.423 31.474 9.752 5.763 1.773 7.093 14.629 1.773 21.721-1.773 2.66-30.587 15.072-64.277 27.927-85.112 32.36-113.926 31.474-167.12-3.103-44.329-28.814-94.864-89.101-85.998-103.287 5.319-8.423 37.68-36.793 50.092-42.999 14.629-7.979 55.411-12.855 76.689-8.866 10.639 1.773 25.268 10.196 42.113 24.824zM539.484 439.3c28.814 13.742 42.556 40.339 40.339 76.246-2.66 46.545-32.36 74.029-79.792 74.029-68.71 0-102.843-79.792-57.628-133.874 22.608-26.597 62.061-33.247 97.081-16.402zM654.296 587.803c33.69 8.866 67.38 19.061 74.473 22.608 24.824 12.855 53.638 46.545 66.050 78.019 20.391 50.535 25.268 123.235 9.752 136.090-3.546 2.66-19.948 6.206-37.236 7.536-27.927 2.216-33.247 1.33-54.525-9.309-45.659-23.494-50.978-31.030-65.607-87.328-15.072-61.174-29.7-95.307-53.638-127.224-14.629-19.061-16.845-24.824-12.855-30.144 7.093-7.979 1.773-8.866 73.586 9.752z"></path>
</svg>
