<?xml version="1.0" standalone="no"?>
<!DOCTYPE svg PUBLIC "-//W3C//DTD SVG 20010904//EN"
 "http://www.w3.org/TR/2001/REC-SVG-20010904/DTD/svg10.dtd">
<svg version="1.0" xmlns="http://www.w3.org/2000/svg"
 width="991.000000pt" height="942.000000pt" viewBox="0 0 991.000000 942.000000"
 preserveAspectRatio="xMidYMid meet">
<metadata>
Created by potrace 1.13, written by Peter Selinger 2001-2015
</metadata>
<g transform="translate(0.000000,942.000000) scale(0.100000,-0.100000)"
fill="#dfb17f" stroke="none">
<path d="M5471 9404 c24 -29 169 -132 276 -197 125 -75 136 -89 212 -248 28
-59 68 -129 89 -156 22 -27 47 -63 56 -80 l16 -32 -208 2 c-198 2 -434 -15
-464 -34 -21 -13 2 -27 82 -48 416 -108 398 -101 745 -300 300 -172 475 -329
640 -576 144 -215 234 -444 285 -729 38 -207 23 -728 -26 -955 -27 -124 -112
-359 -176 -484 -57 -112 -139 -228 -204 -289 -144 -134 -536 -384 -744 -475
-164 -71 -280 -132 -280 -146 0 -8 20 -40 44 -73 25 -32 42 -61 39 -64 -18
-18 -286 317 -336 420 -29 59 -32 74 -32 155 1 135 43 280 88 304 20 10 33 28
73 93 9 16 16 13 70 -27 87 -66 131 -85 197 -85 31 0 57 4 57 8 0 5 -12 18
-26 31 -46 40 -29 46 127 46 188 0 191 9 32 90 -105 54 -168 104 -151 120 2 3
29 1 58 -5 82 -16 291 -12 392 6 100 19 167 56 228 127 29 34 59 121 46 135
-8 8 -81 -20 -127 -49 -62 -39 -129 -38 -129 2 0 17 34 58 138 167 53 56 82
109 97 184 20 94 9 123 -87 225 -32 34 -58 61 -58 60 0 -1 7 -20 15 -42 8 -22
14 -74 15 -116 l0 -75 -52 -56 c-64 -68 -104 -82 -233 -83 -139 0 -182 18
-328 140 -67 57 -138 120 -159 141 -53 57 -106 159 -114 224 -9 72 -30 114
-125 240 -85 114 -130 161 -199 207 -80 52 -142 68 -203 52 -53 -14 -156 -87
-187 -132 l-24 -35 -56 50 c-74 66 -156 105 -276 129 -87 19 -122 20 -299 16
-218 -6 -297 -19 -366 -59 -64 -38 -129 -111 -129 -145 0 -52 6 -54 121 -42
57 6 130 9 162 6 113 -10 224 -86 277 -187 10 -19 30 -48 45 -64 40 -43 55
-87 55 -159 0 -131 -48 -240 -151 -347 -49 -50 -82 -70 -240 -149 -197 -97
-227 -107 -359 -116 -93 -6 -113 -19 -90 -55 8 -12 41 -15 195 -15 102 0 185
-3 185 -6 0 -3 -26 -34 -57 -69 -72 -79 -155 -134 -248 -163 l-70 -22 81 -3
c58 -2 114 4 200 23 210 46 203 50 86 -46 -57 -46 -129 -105 -160 -131 -31
-26 -92 -65 -134 -88 -43 -23 -78 -46 -78 -51 0 -14 87 -11 155 6 74 18 132
19 164 2 37 -18 121 -185 121 -239 0 -29 -18 -83 -61 -180 -54 -122 -67 -143
-99 -163 -21 -13 -58 -50 -83 -82 -24 -32 -54 -67 -66 -77 -34 -31 -25 2 14
50 19 23 35 46 35 51 0 11 -146 101 -236 146 -74 37 -252 182 -315 255 -19 22
-49 66 -68 99 -19 32 -67 108 -107 168 -114 171 -190 352 -215 504 -5 36 -23
134 -39 216 -68 350 -82 462 -77 590 8 186 84 555 153 750 91 256 153 347 386
576 113 111 189 177 229 200 34 19 90 59 126 90 70 61 244 165 356 212 39 16
140 47 224 68 85 21 190 50 234 64 44 14 89 25 100 25 10 0 19 4 19 9 0 22
-151 33 -405 28 -237 -5 -336 -11 -540 -32 l-70 -7 51 53 c123 130 501 596
491 606 -15 14 -366 -144 -538 -243 -42 -24 -79 -44 -82 -44 -4 0 -7 26 -7 57
0 31 -5 96 -11 144 l-11 86 -32 -7 c-94 -21 -240 -122 -337 -231 -390 -440
-534 -679 -623 -1034 -55 -222 -69 -349 -62 -560 l6 -180 -34 35 c-85 85 -149
241 -182 445 -22 131 -25 475 -5 650 13 116 52 307 77 378 16 44 45 189 39
196 -7 6 -197 -99 -299 -166 -266 -173 -503 -394 -633 -588 -83 -124 -149
-286 -177 -435 -20 -103 -21 -297 -2 -387 30 -139 163 -460 239 -575 50 -75
148 -165 222 -205 73 -39 110 -77 119 -123 4 -19 16 -87 27 -150 13 -72 29
-131 45 -159 22 -39 31 -71 20 -71 -2 0 -45 13 -94 29 -192 63 -306 139 -566
376 -119 109 -223 231 -328 385 -148 217 -198 335 -221 526 l-13 109 -72 -108
c-284 -428 -495 -1018 -527 -1477 -3 -47 -8 -99 -11 -116 -4 -29 -1 -34 38
-55 89 -48 135 -66 193 -78 33 -7 128 -32 211 -57 84 -24 196 -55 250 -68 55
-14 117 -30 139 -36 22 -5 84 -21 138 -35 54 -14 133 -39 175 -55 100 -41 692
-329 716 -349 37 -32 96 -177 96 -236 0 -42 -10 -45 -185 -45 -305 0 -601 19
-790 51 -339 58 -467 89 -773 191 -116 39 -214 69 -217 66 -7 -7 20 -311 40
-458 52 -373 222 -983 370 -1330 49 -114 208 -422 280 -540 150 -247 235 -351
539 -656 328 -328 449 -422 817 -634 308 -178 475 -256 532 -248 25 3 24 5
-57 133 -85 134 -169 316 -185 402 -21 110 64 236 209 308 136 69 251 94 455
102 591 21 1005 -241 1387 -879 135 -224 208 -443 211 -628 2 -126 -13 -182
-77 -291 -59 -101 -80 -114 -182 -115 -44 -1 -90 -7 -102 -13 -46 -24 -113 -8
-149 37 -7 9 -13 39 -13 67 0 72 20 90 92 81 29 -3 64 -7 77 -8 40 -5 55 36
31 81 -11 20 -27 62 -36 94 -24 82 -56 107 -138 107 -50 0 -75 -7 -133 -34
-62 -30 -76 -41 -101 -86 -36 -64 -58 -160 -42 -190 6 -11 13 -49 17 -85 5
-50 2 -70 -11 -90 -15 -23 -22 -25 -91 -25 -41 0 -94 6 -117 14 -24 8 -62 19
-85 25 -130 35 -285 134 -345 222 -48 69 -67 145 -75 289 -5 96 -3 121 10 147
40 76 118 36 150 -77 19 -65 72 -132 128 -160 45 -24 78 -25 123 -6 47 20 66
66 66 165 0 152 -60 247 -205 323 -91 47 -154 64 -194 50 -39 -14 -101 -63
-101 -80 0 -7 -25 -49 -55 -93 l-55 -80 0 -172 c0 -196 10 -250 66 -365 42
-86 124 -175 204 -220 30 -17 61 -41 68 -52 17 -27 163 -95 287 -133 99 -31
102 -31 315 -30 199 1 222 3 311 27 151 41 325 102 382 134 94 52 229 141 253
167 13 14 27 25 32 25 5 0 23 -21 40 -47 44 -69 117 -122 234 -171 226 -96
342 -122 531 -122 270 0 506 64 855 232 110 53 134 69 202 137 114 113 166
233 172 391 6 159 0 215 -29 257 -30 44 -95 100 -158 135 -60 33 -151 31 -230
-5 -163 -76 -205 -123 -246 -274 l-29 -108 21 -40 c28 -54 56 -82 94 -95 72
-24 170 65 230 206 28 68 102 94 143 51 18 -19 22 -35 22 -93 0 -117 -50 -227
-147 -320 -71 -69 -215 -159 -310 -193 -128 -47 -303 -71 -303 -42 0 3 7 47
16 96 21 122 16 158 -40 252 -58 97 -96 125 -177 131 -144 11 -266 -117 -230
-240 12 -40 13 -40 54 -35 23 3 56 9 74 12 26 6 36 2 57 -18 22 -22 26 -35 26
-81 0 -51 -3 -57 -33 -80 -43 -33 -86 -41 -134 -25 -21 7 -61 11 -90 10 -28
-1 -62 3 -75 10 -55 29 -142 120 -176 186 -13 24 -11 41 55 423 62 367 131
524 352 798 93 115 234 253 311 303 90 60 190 105 331 153 173 58 260 70 504
69 160 0 220 -5 300 -21 210 -43 339 -109 428 -218 76 -94 92 -135 92 -234 0
-77 -3 -92 -36 -160 -44 -91 -101 -169 -204 -278 -69 -74 -75 -82 -49 -76 16
4 37 11 46 16 10 4 41 13 70 18 62 12 487 246 701 386 281 184 391 285 613
562 421 527 685 1011 882 1622 130 403 258 999 229 1073 -4 10 -23 -3 -69 -47
-94 -90 -148 -112 -397 -163 -117 -24 -266 -50 -330 -58 -175 -23 -484 -33
-789 -27 -227 4 -275 7 -279 20 -9 23 14 108 52 193 20 43 35 81 34 86 -4 24
7 37 74 84 89 63 224 129 337 164 47 14 117 40 155 57 101 44 327 111 580 173
251 61 407 110 511 160 40 19 79 35 87 35 30 0 47 12 47 34 0 34 -114 485
-174 686 -30 102 -78 248 -106 325 -66 179 -211 498 -221 488 -4 -4 -17 -42
-29 -83 -40 -136 -119 -272 -222 -382 -96 -103 -259 -237 -377 -310 -64 -39
-144 -91 -177 -115 -34 -24 -81 -52 -105 -62 -40 -18 -416 -131 -434 -131 -15
0 5 126 31 190 56 141 61 148 111 174 190 97 255 137 278 172 9 14 47 58 84
97 68 72 147 185 169 242 21 53 42 227 42 350 0 410 -124 770 -370 1070 -177
215 -509 480 -780 619 l-87 45 52 -122 c72 -167 175 -439 237 -621 47 -139 51
-160 56 -268 6 -138 -9 -247 -45 -333 -13 -33 -39 -103 -57 -155 -41 -117 -92
-221 -99 -200 -5 15 -23 166 -53 440 -14 136 -45 254 -140 540 -47 139 -157
367 -239 491 -104 159 -267 317 -417 404 -27 15 -48 23 -48 18 0 -4 14 -66 30
-137 17 -72 30 -131 30 -133 0 -2 -60 28 -132 66 -177 93 -273 134 -533 229
-269 97 -532 172 -688 195 -34 5 -37 4 -26 -9z m-213 -2661 c103 -142 162
-236 162 -261 0 -32 -112 -141 -179 -174 -40 -20 -61 -23 -161 -23 -138 0
-201 18 -220 65 -10 25 -7 40 39 149 28 66 51 125 51 131 0 5 37 32 83 60 45
28 100 66 122 85 22 19 43 34 47 35 3 0 28 -30 56 -67z"/>
</g>
</svg>
