<?xml version="1.0" standalone="no"?>
<!DOCTYPE svg PUBLIC "-//W3C//DTD SVG 20010904//EN"
 "http://www.w3.org/TR/2001/REC-SVG-20010904/DTD/svg10.dtd">
<svg version="1.0" xmlns="http://www.w3.org/2000/svg"
 width="900.000000pt" height="1000.000000pt" viewBox="0 0 900.000000 1000.000000"
 preserveAspectRatio="xMidYMid meet">
<metadata>
Created by potrace 1.13, written by Peter Selinger 2001-2015
</metadata>
<g transform="translate(0.000000,1000.000000) scale(0.100000,-0.100000)"
fill="#d28a7f" stroke="none">
<path d="M4850 9991 c-84 -29 -146 -59 -228 -112 -51 -33 -113 -70 -139 -81
-56 -25 -151 -26 -205 -4 -47 20 -118 20 -165 1 -19 -8 -47 -15 -62 -15 -14 0
-48 -14 -76 -30 -27 -16 -66 -38 -86 -49 -53 -29 -144 -116 -211 -199 -47 -59
-58 -80 -58 -110 -1 -49 -29 -108 -76 -159 -33 -34 -47 -42 -89 -47 -219 -26
-315 -67 -445 -192 -50 -49 -124 -131 -163 -184 -39 -52 -99 -124 -132 -160
-71 -77 -122 -171 -160 -293 -26 -84 -26 -89 -12 -140 8 -28 19 -70 24 -92 7
-35 14 -43 55 -62 45 -21 47 -24 38 -49 -6 -14 -24 -42 -40 -62 -17 -20 -30
-42 -30 -49 0 -6 -24 -38 -53 -70 -29 -32 -77 -101 -107 -153 -71 -122 -73
-167 -17 -280 39 -79 48 -141 26 -183 -7 -12 -42 -53 -78 -92 -37 -38 -74 -88
-83 -110 -106 -255 -113 -297 -62 -366 29 -40 31 -87 4 -131 -14 -24 -20 -51
-20 -95 0 -34 -4 -73 -10 -88 -9 -25 -11 -25 -39 -11 -47 25 -90 89 -132 198
-27 70 -49 112 -71 132 -29 27 -34 28 -97 22 -63 -7 -116 -22 -173 -52 -33
-18 -48 -18 -84 0 -45 23 -200 46 -304 46 l-95 0 -18 -43 c-22 -54 -84 -120
-140 -148 -74 -38 -192 -117 -205 -138 -7 -12 -23 -21 -37 -21 -14 0 -29 -8
-35 -20 -15 -29 -154 -137 -209 -164 -75 -36 -109 -66 -176 -157 -86 -115
-133 -194 -150 -254 -8 -27 -33 -147 -55 -265 -23 -118 -48 -241 -56 -274 -8
-32 -13 -61 -9 -64 3 -3 20 9 38 26 18 18 37 32 43 32 5 0 17 28 27 63 9 34
33 94 52 132 20 39 35 75 35 82 0 6 22 36 50 66 27 30 50 58 50 61 0 3 41 57
91 119 50 61 107 138 127 169 23 36 44 57 56 57 11 1 47 12 80 25 34 14 89 30
124 37 37 8 62 18 62 26 0 7 15 16 33 21 20 5 37 18 45 35 18 37 56 61 136 86
85 26 121 26 199 0 34 -11 84 -22 112 -22 61 -2 160 -55 227 -120 70 -68 164
-216 181 -287 4 -14 56 -79 117 -145 115 -125 209 -250 196 -262 -11 -11 -93
14 -185 58 -46 21 -92 39 -103 39 -10 0 -29 7 -41 15 -28 18 -140 45 -191 45
-24 0 -56 -10 -81 -24 -28 -17 -64 -27 -115 -31 -41 -4 -118 -21 -170 -37 -79
-25 -107 -40 -170 -91 -159 -129 -259 -220 -286 -260 -15 -23 -45 -61 -67 -84
-29 -30 -42 -54 -48 -90 -5 -26 -33 -98 -63 -160 -30 -62 -60 -140 -67 -175
-7 -38 -19 -68 -30 -76 -20 -14 -89 -139 -89 -161 0 -8 -16 -45 -35 -82 -19
-38 -35 -76 -35 -85 0 -10 -7 -25 -15 -34 -45 -49 -195 -401 -195 -456 0 -8
-8 -31 -18 -52 -29 -58 -80 -268 -87 -362 -4 -47 -11 -90 -16 -96 -11 -13 -58
-172 -70 -234 -5 -25 -5 -58 -1 -73 l7 -28 22 23 c12 13 60 87 107 165 84 139
246 483 259 552 10 50 74 149 99 153 11 2 24 10 29 18 34 66 57 119 63 144 4
16 18 43 31 60 13 17 27 44 31 61 4 16 19 50 34 75 14 25 29 52 32 61 3 8 33
57 67 108 62 95 72 120 90 230 13 79 48 152 98 207 31 33 47 42 85 48 26 4 54
14 62 22 24 24 64 34 131 34 47 0 74 5 97 20 47 28 158 28 204 -1 72 -44 173
-199 200 -304 4 -17 17 -38 29 -47 13 -10 49 -52 81 -95 108 -143 208 -267
268 -333 71 -78 166 -195 166 -204 0 -3 -17 -6 -38 -6 -27 0 -45 7 -58 21 -50
55 -84 60 -433 60 -213 1 -295 -3 -313 -12 -41 -22 -137 -112 -148 -140 -7
-15 -23 -37 -36 -50 -31 -29 -62 -98 -75 -164 -11 -58 -50 -121 -83 -136 -27
-12 -67 -131 -135 -397 -32 -125 -41 -181 -50 -320 -6 -92 -19 -264 -28 -384
-12 -167 -14 -281 -9 -505 10 -448 0 -440 123 -93 97 272 106 303 114 398 9
106 70 492 95 597 19 81 37 130 55 152 25 29 49 121 49 187 0 70 39 193 67
214 10 7 37 18 61 24 24 6 61 26 84 44 22 19 48 34 58 34 10 0 40 -18 66 -40
27 -23 59 -43 71 -46 47 -12 202 20 254 52 55 34 112 46 233 46 128 0 183 -12
229 -50 17 -15 44 -34 59 -41 81 -41 187 -181 222 -293 3 -9 22 -26 44 -37 21
-11 44 -27 51 -35 12 -14 6 -16 -53 -16 -54 0 -69 4 -83 20 -22 26 -37 25
-113 -4 -49 -18 -72 -34 -104 -72 -23 -27 -68 -74 -100 -104 -32 -30 -111
-125 -176 -210 -64 -85 -139 -180 -167 -210 -28 -30 -58 -71 -68 -90 -10 -19
-34 -55 -55 -80 -20 -25 -42 -55 -49 -67 -6 -13 -34 -52 -61 -89 -87 -114
-114 -187 -86 -234 8 -14 28 -53 45 -88 65 -136 95 -174 180 -232 53 -36 84
-64 88 -80 7 -24 8 -32 11 -77 3 -33 49 -81 85 -88 40 -9 123 -64 169 -113 19
-20 79 -100 134 -177 161 -229 312 -365 568 -518 253 -150 576 -263 891 -312
217 -34 571 -30 885 11 303 38 642 119 794 188 43 20 84 36 90 36 62 1 315
185 423 309 68 77 218 290 210 297 -2 2 -30 -8 -64 -21 -145 -59 -460 -122
-659 -132 -135 -7 -185 4 -210 43 -16 24 -15 26 71 116 48 50 102 99 120 108
197 101 378 333 425 547 11 48 22 99 26 112 7 22 1 20 -52 -21 -127 -98 -358
-234 -602 -357 -145 -73 -382 -147 -512 -161 -125 -12 -186 -3 -315 47 -142
56 -157 66 -290 193 -157 149 -152 146 -475 208 -243 47 -278 52 -335 52 -33
0 -89 -5 -125 -11 -36 -5 -99 -14 -141 -19 -88 -10 -117 -22 -194 -86 -98 -79
-148 -82 -187 -11 -17 31 -45 56 -103 94 -136 87 -177 129 -188 190 -6 29 -3
34 41 61 26 17 64 35 84 40 21 6 82 39 135 74 160 104 202 125 313 152 58 14
116 27 130 28 28 3 29 9 15 134 -5 43 -4 74 2 77 5 3 24 -3 41 -13 30 -18 32
-24 32 -75 0 -47 3 -55 18 -55 22 0 52 -30 52 -52 0 -18 47 -61 90 -83 49 -25
122 -36 236 -36 124 -1 231 20 355 69 41 16 117 37 169 47 52 9 106 25 120 34
96 62 175 82 346 88 152 6 208 0 463 -42 47 -8 86 -13 87 -12 2 2 -40 36 -94
77 -163 127 -173 142 -131 201 l20 29 189 0 c194 0 220 -3 220 -25 0 -7 7 -18
15 -25 8 -6 22 -37 31 -68 l17 -57 12 80 c7 44 22 116 34 160 45 163 65 180
208 176 124 -2 218 14 268 46 54 36 135 113 211 201 79 92 99 147 89 239 -7
64 -8 68 -71 130 -79 79 -87 94 -69 120 24 34 85 48 152 34 38 -8 122 -12 240
-9 207 3 212 5 270 94 49 76 77 113 85 114 4 0 6 -30 5 -67 l-2 -66 70 -15
c90 -19 191 -20 233 -3 65 27 172 -3 172 -49 0 -9 5 -21 11 -27 9 -9 9 -27 -1
-72 -17 -81 -9 -159 22 -219 14 -27 29 -74 33 -103 4 -30 20 -79 35 -109 15
-30 42 -100 60 -155 28 -85 33 -115 34 -200 1 -145 -43 -282 -133 -420 -14
-22 -37 -61 -49 -86 -13 -26 -67 -96 -120 -156 -54 -60 -115 -131 -137 -159
-22 -27 -71 -82 -108 -122 -38 -40 -67 -75 -65 -77 6 -6 218 15 310 30 92 16
198 47 235 68 27 15 206 171 301 261 l72 69 0 -39 c0 -76 -20 -220 -40 -285
-43 -145 -195 -315 -455 -509 -93 -70 -204 -159 -245 -197 l-75 -70 65 -21
c36 -11 93 -23 127 -27 60 -6 65 -4 165 46 56 28 118 63 136 77 19 15 78 47
131 73 113 55 385 249 527 377 53 48 131 117 175 153 106 88 190 175 184 191
-3 7 7 27 21 43 15 17 23 22 20 13 -8 -26 -1 -22 20 10 15 23 15 25 1 13 -9
-7 -17 -9 -17 -3 0 13 25 33 32 26 7 -7 74 88 70 99 -1 4 10 27 26 50 74 109
144 262 182 398 11 40 32 145 45 232 l25 158 -40 202 c-21 111 -46 246 -54
299 -19 114 -48 199 -86 248 -16 20 -44 69 -64 109 -20 42 -59 98 -89 130 -29
31 -67 77 -85 102 -35 53 -86 99 -108 99 -23 0 -170 77 -206 108 -18 16 -51
41 -73 55 -22 15 -52 36 -66 48 -27 21 -28 21 -240 8 -118 -8 -259 -14 -314
-13 -113 0 -149 12 -249 82 -33 23 -69 42 -81 42 -13 0 -28 7 -35 15 -7 8 -29
15 -50 15 -25 0 -43 7 -56 21 -10 11 -63 45 -119 76 -138 77 -216 141 -263
216 -22 34 -73 96 -114 137 -42 41 -82 89 -91 106 -9 17 -35 43 -59 59 -24 16
-77 59 -119 97 -86 78 -234 166 -352 210 -63 23 -104 32 -177 35 -95 5 -95 5
-135 -27 -29 -23 -42 -43 -51 -77 -9 -34 -25 -58 -65 -97 -30 -28 -68 -59 -83
-70 -16 -10 -57 -44 -90 -75 -34 -31 -76 -63 -94 -70 -36 -15 -48 -11 -108 32
-18 12 -46 30 -63 39 -28 15 -31 22 -31 65 0 27 4 63 9 81 11 39 -11 130 -35
139 -28 11 -17 79 28 161 22 42 50 87 61 99 36 41 106 263 107 340 0 36 5 46
38 73 51 43 138 79 193 80 111 1 220 -46 399 -169 341 -234 437 -290 586 -340
49 -17 127 -46 174 -66 46 -19 89 -35 96 -35 6 0 17 -7 24 -15 8 -9 29 -15 54
-15 l41 1 -54 51 c-30 27 -97 79 -149 113 -51 35 -144 110 -205 167 -192 180
-424 345 -526 375 -48 13 -71 31 -181 137 -158 151 -199 183 -254 202 -40 14
-47 14 -78 -2 -18 -9 -46 -26 -63 -39 -52 -39 -86 -51 -280 -105 -155 -43
-201 -60 -250 -93 -33 -22 -64 -45 -70 -51 -5 -7 -26 -16 -45 -22 -49 -13 -80
-75 -80 -162 0 -35 -7 -111 -15 -170 -8 -59 -19 -136 -23 -172 l-7 -65 -40 52
c-84 109 -96 136 -105 236 -14 157 -40 316 -72 446 -44 176 -44 254 -1 345 28
57 57 92 175 211 79 78 159 151 178 161 28 15 55 19 140 18 101 0 110 -2 230
-48 124 -48 218 -71 400 -99 73 -11 131 -29 251 -80 85 -36 184 -79 218 -96
34 -18 68 -30 74 -28 19 6 -199 161 -330 232 -70 39 -181 106 -248 150 -114
75 -186 113 -265 138 -19 6 -43 18 -53 26 -14 12 -53 17 -145 22 -133 7 -153
12 -285 74 -62 29 -90 36 -138 36 -78 1 -126 -27 -208 -120 -65 -74 -192 -169
-250 -189 -19 -7 -49 -12 -67 -12 -19 0 -34 -4 -34 -10 0 -5 -24 -24 -54 -40
-63 -36 -74 -47 -85 -88 -7 -24 -4 -41 17 -84 23 -47 26 -64 25 -148 0 -63 -6
-108 -17 -134 -9 -21 -16 -52 -16 -69 0 -19 -12 -45 -33 -71 -19 -23 -36 -48
-39 -56 -7 -22 -75 84 -157 245 -39 77 -98 183 -131 234 -72 113 -95 180 -85
254 8 57 28 112 49 137 8 8 22 43 31 78 15 54 16 73 6 132 -6 38 -11 120 -11
183 0 101 -3 121 -25 170 -25 53 -25 56 -10 113 8 32 18 66 21 76 5 18 90 86
165 134 40 25 81 60 169 144 35 33 38 40 45 115 4 44 13 96 20 115 8 19 16 53
20 75 4 21 13 52 21 67 16 30 77 69 139 88 52 16 187 86 210 108 9 9 36 53 58
96 23 43 53 87 67 97 30 22 134 39 246 39 93 0 172 20 200 51 10 12 51 37 89
56 39 20 91 55 117 78 103 92 164 97 293 22 123 -72 233 -108 342 -115 100 -5
262 12 325 34 79 28 96 22 301 -100 106 -63 212 -120 237 -126 29 -8 75 -10
130 -6 85 6 86 6 113 -22 14 -15 32 -43 38 -62 18 -53 52 -94 127 -150 l67
-51 110 2 c127 3 167 -9 207 -62 28 -37 53 -109 63 -179 11 -72 45 -182 71
-227 29 -51 75 -83 212 -152 104 -52 152 -92 208 -172 33 -47 31 -24 19 -349
l-7 -185 32 -80 c59 -145 42 -247 -57 -336 -21 -19 -75 -50 -120 -68 -132 -53
-203 -145 -273 -351 -44 -128 -12 -334 81 -530 90 -188 272 -429 394 -522 67
-51 343 -191 428 -217 42 -13 121 -24 210 -31 193 -13 188 -14 152 8 -53 33
-105 95 -143 171 -33 66 -37 83 -37 150 0 67 5 85 37 152 21 46 63 107 102
152 90 104 143 189 168 270 28 94 22 258 -17 402 -30 113 -46 138 -153 240
-110 105 -122 125 -143 229 -11 50 -19 105 -19 122 0 17 23 80 51 140 39 82
53 124 56 170 8 86 -19 196 -74 307 -41 83 -58 104 -168 212 -70 68 -132 139
-144 163 -12 24 -31 92 -43 150 -22 121 -57 217 -113 318 -43 77 -126 164
-156 164 -26 0 -89 33 -113 59 -11 12 -29 21 -41 21 -28 0 -105 51 -144 95
-17 19 -58 90 -92 157 -52 101 -75 136 -133 194 -87 87 -128 103 -281 111
-127 7 -175 25 -240 93 -52 54 -135 118 -209 160 -53 30 -69 34 -171 40 -100
6 -118 10 -176 41 -41 22 -92 62 -144 115 -108 109 -142 127 -311 163 -195 42
-252 46 -359 27 -49 -9 -164 -19 -255 -22 -141 -5 -172 -3 -210 11 -51 19
-202 29 -240 16z m1165 -5075 c28 -13 109 -65 180 -115 72 -50 161 -110 200
-133 85 -53 155 -118 155 -145 0 -28 -86 -91 -175 -128 -38 -16 -98 -51 -134
-78 -35 -27 -103 -75 -150 -107 -47 -31 -108 -76 -136 -99 -27 -22 -55 -41
-61 -41 -6 0 -23 -9 -37 -20 -37 -29 -127 -24 -127 7 0 8 -19 34 -43 58 -31
31 -54 45 -83 50 -21 4 -48 11 -59 16 -11 5 -40 16 -64 23 -25 7 -47 18 -49
25 -5 14 75 91 92 88 6 -1 11 5 11 13 0 9 19 51 41 95 23 44 56 121 74 170 50
138 116 265 160 308 36 34 44 37 97 37 41 0 73 -7 108 -24z m2647 -2998 c-7
-7 -12 -8 -12 -2 0 14 12 26 19 19 2 -3 -1 -11 -7 -17z"/>
<path d="M8590 1820 c-8 -5 -12 -12 -9 -15 4 -3 12 1 19 10 14 17 11 19 -10 5z"/>
</g>
</svg>
