<?xml version="1.0" standalone="no"?>
<!DOCTYPE svg PUBLIC "-//W3C//DTD SVG 20010904//EN"
 "http://www.w3.org/TR/2001/REC-SVG-20010904/DTD/svg10.dtd">
<svg version="1.0" xmlns="http://www.w3.org/2000/svg"
 width="972.000000pt" height="1021.000000pt" viewBox="0 0 972.000000 1021.000000"
 preserveAspectRatio="xMidYMid meet">
<metadata>
Created by potrace 1.13, written by Peter Selinger 2001-2015
</metadata>
<g transform="translate(0.000000,1021.000000) scale(0.100000,-0.100000)"
fill="#bb7fcb" stroke="none">
<path d="M5290 10192 c-91 -28 -210 -116 -231 -170 -5 -13 -9 -49 -9 -80 0
-73 -20 -176 -55 -277 -19 -56 -30 -118 -38 -208 l-11 -129 -31 5 c-16 3 -50
12 -75 21 -25 9 -80 23 -122 32 -72 16 -83 16 -144 1 -150 -37 -200 -73 -305
-218 -63 -87 -86 -133 -135 -279 l-42 -125 -48 -5 c-27 -3 -66 -15 -87 -27
l-37 -22 0 25 c0 33 21 72 76 139 62 77 104 145 104 170 0 30 -93 166 -158
230 -35 36 -81 68 -130 92 -67 32 -80 35 -131 29 -31 -3 -83 -19 -116 -35 -33
-15 -85 -39 -115 -52 -30 -13 -81 -44 -114 -68 -88 -64 -247 -221 -263 -259
l-14 -34 -23 25 c-24 26 -170 87 -208 87 -13 0 -31 9 -41 20 -22 26 -57 25
-155 -1 -170 -46 -288 -111 -409 -223 -57 -53 -63 -62 -63 -99 0 -28 -7 -48
-22 -64 -18 -20 -23 -39 -26 -99 -5 -84 -13 -90 -66 -49 -95 72 -207 86 -366
46 -169 -43 -173 -45 -252 -134 -39 -45 -102 -128 -139 -185 l-67 -103 5 -122
c4 -88 11 -138 26 -177 19 -53 27 -134 13 -147 -4 -4 -52 -10 -109 -14 -154
-10 -214 -30 -297 -99 -25 -21 -61 -44 -81 -53 -41 -17 -107 -90 -115 -127 -4
-14 -17 -60 -30 -103 -53 -172 -56 -289 -10 -397 55 -128 96 -244 92 -256 -3
-7 -39 -13 -93 -16 -119 -6 -147 -22 -268 -157 -104 -116 -104 -117 -142 -270
-22 -90 -7 -167 63 -328 7 -14 -73 -103 -92 -103 -8 0 -45 -30 -83 -68 -51
-50 -72 -78 -80 -110 -17 -63 -15 -266 3 -335 29 -106 84 -189 148 -223 42
-22 34 -45 -25 -74 -50 -25 -52 -28 -77 -103 -15 -42 -36 -87 -47 -100 -17
-20 -19 -31 -13 -117 4 -64 13 -110 27 -140 11 -25 27 -63 34 -85 7 -22 19
-47 26 -56 20 -24 16 -37 -22 -89 -66 -90 -79 -146 -45 -190 12 -15 20 -41 20
-66 0 -64 18 -146 37 -166 9 -10 46 -33 82 -50 36 -17 79 -40 94 -51 51 -35
244 -63 326 -47 57 11 147 61 276 154 86 62 172 87 211 61 32 -21 31 -61 -3
-97 -15 -15 -32 -28 -37 -28 -6 0 -83 -36 -171 -80 -190 -96 -274 -120 -417
-120 l-98 0 0 -237 c0 -262 8 -354 46 -548 46 -239 114 -442 261 -790 142
-334 234 -505 364 -677 303 -401 864 -890 1249 -1087 166 -86 444 -154 1020
-252 182 -31 189 -31 422 -25 240 6 408 19 463 36 17 5 80 17 140 25 147 22
210 37 351 86 259 89 488 209 798 417 294 197 336 227 386 272 l45 40 -30 22
c-128 96 -302 245 -419 358 -255 248 -405 442 -623 805 -282 469 -441 904
-523 1431 -21 135 -19 152 28 261 42 100 48 133 27 177 -19 40 -544 562 -765
761 -191 171 -202 183 -298 326 -73 107 -82 126 -76 153 10 47 31 83 77 132
44 46 69 54 97 29 10 -9 36 -26 58 -38 53 -29 185 -122 236 -167 23 -20 68
-56 100 -80 32 -25 104 -94 160 -153 56 -60 124 -124 152 -142 79 -51 180
-142 386 -347 134 -134 204 -196 237 -211 39 -19 69 -22 200 -25 119 -3 165 0
205 12 54 16 223 31 576 50 118 6 222 15 230 21 50 31 190 138 190 144 0 17
50 61 70 61 23 0 311 -211 473 -347 56 -46 149 -129 207 -182 58 -54 120 -106
138 -115 18 -9 37 -29 43 -43 15 -39 0 -160 -27 -223 -12 -30 -37 -108 -54
-173 -17 -65 -42 -148 -56 -185 -14 -37 -23 -77 -20 -88 3 -12 25 -33 48 -47
53 -31 182 -148 269 -243 35 -38 135 -161 221 -272 180 -231 173 -214 173
-432 0 -126 -2 -140 -28 -200 -15 -36 -37 -89 -48 -118 -26 -67 -73 -117 -124
-131 -22 -6 -76 -14 -120 -17 -78 -6 -81 -5 -140 29 -124 73 -146 104 -170
234 -7 43 -18 92 -24 108 -6 17 -15 91 -20 166 -11 159 -36 244 -101 345 -56
85 -92 114 -177 143 l-71 25 -88 -30 c-118 -39 -196 -93 -259 -179 l-50 -68
-3 -166 c-4 -195 0 -221 38 -265 37 -42 154 -96 224 -103 46 -5 57 -2 75 16
34 34 27 51 -21 51 -47 0 -87 17 -98 40 -4 8 -13 26 -21 40 -81 148 -89 198
-39 248 17 17 30 37 30 44 0 8 15 32 33 54 17 22 37 48 43 59 19 35 58 54 124
60 62 7 67 5 115 -27 85 -57 91 -72 99 -262 11 -275 49 -425 147 -584 105
-172 232 -275 382 -313 49 -12 332 6 412 26 68 17 254 104 303 142 18 14 42
46 54 71 11 26 31 70 44 97 13 28 33 84 45 125 17 60 29 83 64 117 52 53 79
55 142 9 82 -58 154 -93 268 -132 204 -69 338 -56 480 44 85 60 138 111 280
270 61 68 124 131 140 140 17 8 53 16 80 17 73 3 95 12 95 40 0 42 -46 57
-136 46 -93 -11 -164 -45 -289 -137 -49 -36 -117 -83 -150 -105 -33 -22 -73
-56 -90 -75 -26 -30 -39 -36 -90 -43 -75 -10 -232 18 -255 47 -9 10 -41 22
-79 30 -98 18 -155 81 -180 200 -24 115 -9 184 56 253 25 26 68 60 96 74 44
21 64 25 146 25 119 0 156 16 189 80 19 39 22 59 22 175 0 165 9 196 74 265
67 71 136 165 136 185 0 9 -16 30 -36 47 -41 36 -61 74 -98 181 -24 70 -26 84
-17 129 18 80 69 193 106 231 37 39 55 89 55 160 0 73 -9 83 -81 91 -90 11
-139 29 -279 109 -356 201 -443 270 -558 447 -137 211 -285 464 -354 605 -50
104 -76 147 -103 168 -19 15 -35 37 -35 47 0 18 -7 20 -90 20 -49 0 -90 4 -90
8 0 11 56 62 115 104 70 51 91 77 99 123 3 22 31 130 61 240 75 267 82 310 67
383 -10 48 -19 64 -60 102 -26 25 -82 61 -123 81 -76 38 -204 137 -272 212
-21 23 -71 90 -112 148 -41 59 -98 135 -128 170 -57 68 -64 80 -121 201 -134
283 -99 1178 80 2006 13 63 24 117 24 122 0 4 -14 13 -31 19 -27 9 -33 8 -52
-13 -12 -13 -32 -28 -44 -35 -13 -6 -26 -24 -29 -39 -4 -15 -17 -38 -30 -52
-12 -14 -32 -47 -44 -75 -12 -27 -46 -91 -76 -141 -65 -107 -144 -282 -204
-449 -35 -95 -51 -126 -77 -148 -26 -22 -38 -47 -59 -114 -14 -47 -29 -81 -33
-77 -4 5 -30 41 -58 79 -29 39 -68 86 -88 105 -32 31 -42 35 -84 34 -43 -2
-50 1 -60 22 -6 14 -18 27 -26 30 -17 7 -97 116 -121 167 -20 41 -34 47 -130
47 l-71 0 -7 61 c-11 111 -72 188 -184 236 -56 24 -186 21 -247 -6 -26 -12
-49 -21 -50 -21 -2 0 -6 29 -10 64 -3 35 -14 91 -22 123 -13 48 -17 139 -20
511 -2 248 -7 452 -11 451 -4 0 -32 -8 -62 -17z m-445 -1008 c11 -3 29 -17 39
-31 18 -24 18 -32 8 -93 -6 -37 -26 -107 -43 -156 -17 -49 -46 -140 -63 -201
l-31 -113 -67 0 -67 0 10 -29 c6 -16 19 -37 30 -47 10 -9 19 -25 19 -34 0 -9
5 -21 12 -28 9 -9 9 -15 0 -24 -7 -7 -12 -22 -12 -35 0 -18 -6 -23 -24 -23
-14 0 -28 -4 -31 -10 -24 -38 -92 29 -120 117 -20 64 -17 166 8 253 26 90 47
230 47 310 0 121 33 147 190 149 41 0 84 -2 95 -5z m-986 -65 c64 -11 70 -14
90 -49 11 -21 21 -47 21 -59 0 -32 -47 -167 -75 -214 -28 -49 -33 -87 -10 -87
18 0 18 -8 0 -40 -24 -41 -19 -69 13 -76 49 -10 80 -25 103 -50 12 -13 32 -24
43 -24 24 0 76 -48 75 -69 0 -9 -8 -29 -18 -46 -27 -47 -83 -46 -180 0 -42 21
-101 49 -132 64 -50 24 -58 31 -81 86 -61 140 -72 185 -72 290 1 116 13 242
26 268 11 21 91 23 197 6z m1848 -138 c54 -39 73 -68 73 -112 0 -20 7 -42 15
-49 24 -20 17 -40 -20 -56 -65 -27 -135 -150 -135 -236 0 -43 -3 -44 -78 -27
-49 10 -49 10 -65 67 -9 31 -23 95 -32 142 -9 47 -19 94 -22 105 -3 16 15 39
84 101 117 107 120 108 180 65z m-2887 -41 c60 -17 123 -64 164 -122 36 -53
37 -58 26 -90 -10 -28 -10 -39 3 -64 8 -16 18 -60 22 -99 8 -78 16 -92 63
-112 31 -13 32 -15 32 -77 0 -62 -1 -64 -43 -102 -23 -22 -58 -51 -77 -66
l-35 -26 30 -8 c17 -4 48 -20 70 -35 22 -16 72 -37 112 -47 l71 -18 -73 -57
c-46 -35 -84 -57 -99 -57 -25 0 -144 62 -261 137 -32 21 -70 42 -82 46 -13 5
-23 13 -23 19 0 6 -22 34 -48 62 -67 72 -181 239 -205 300 -12 31 -21 88 -24
147 -5 91 -4 97 14 103 11 4 49 37 84 73 88 92 176 122 279 93z m3248 -275
c39 -49 46 -83 35 -152 -7 -36 -20 -74 -30 -85 -22 -25 -90 -57 -120 -58 -20
0 -23 -5 -23 -35 0 -19 -2 -35 -5 -35 -14 0 -65 32 -104 64 -24 20 -50 40 -59
45 -14 8 -14 14 1 70 9 33 17 76 17 94 0 64 95 110 237 116 23 1 37 -6 51 -24z
m267 -239 c28 -12 65 -40 84 -61 30 -34 33 -43 28 -82 -3 -27 -17 -63 -38 -93
l-33 -49 -71 -4 c-38 -3 -83 -8 -98 -12 -48 -13 -134 21 -184 73 -56 59 -58
90 -4 115 20 9 53 17 72 17 28 0 42 9 89 60 63 69 78 72 155 36z m-4410 -76
c73 -25 123 -54 202 -118 33 -28 72 -52 84 -54 19 -2 25 -11 31 -46 4 -24 17
-59 29 -78 22 -36 78 -84 97 -84 16 0 42 -41 42 -67 0 -14 -15 -34 -42 -55
-22 -18 -66 -56 -97 -84 -31 -28 -78 -63 -104 -78 -31 -18 -46 -31 -39 -38 14
-14 158 -37 235 -38 63 0 68 -2 77 -26 11 -28 13 -84 4 -108 -7 -19 -92 -21
-194 -5 -36 5 -89 13 -118 18 -31 4 -61 16 -75 29 -13 12 -35 22 -49 22 -14 0
-31 7 -38 15 -7 8 -23 15 -36 15 -13 0 -57 16 -97 36 -52 26 -77 45 -86 65 -7
16 -35 52 -63 80 -71 72 -91 124 -91 229 -1 190 39 292 137 358 58 38 105 42
191 12z m-645 -825 c28 -14 106 -95 134 -138 11 -15 34 -31 55 -37 26 -8 44
-23 67 -58 17 -26 46 -57 65 -69 88 -55 102 -98 49 -145 -38 -33 -43 -83 -7
-73 29 9 82 42 97 60 17 20 123 21 139 1 6 -8 14 -36 17 -63 6 -47 5 -50 -30
-77 -52 -40 -114 -64 -187 -75 -35 -5 -77 -14 -93 -21 -16 -6 -64 -14 -106
-17 -193 -15 -421 85 -506 221 -16 26 -46 73 -66 104 -31 47 -38 66 -38 107 0
55 9 71 84 157 55 64 122 115 175 135 40 14 111 9 151 -12z m-431 -1023 c49
-8 61 -15 102 -60 28 -31 56 -75 69 -109 12 -32 26 -61 32 -64 7 -5 7 -17 -1
-40 -5 -19 -13 -47 -16 -63 -3 -16 -20 -42 -36 -59 l-30 -30 56 6 c31 3 85 19
120 35 34 17 77 33 93 37 17 3 36 13 43 21 15 19 89 18 117 -2 49 -34 7 -184
-51 -184 -13 0 -73 -15 -133 -34 -75 -24 -144 -38 -222 -45 -62 -6 -117 -13
-122 -16 -8 -5 -99 21 -250 73 -76 26 -89 34 -123 78 -48 63 -77 141 -77 207
1 51 3 54 75 132 59 64 87 85 137 107 66 28 94 29 217 10z m5295 -99 c59 -16
68 -24 308 -256 144 -139 282 -283 330 -343 45 -57 86 -104 90 -104 4 0 11
-18 14 -40 4 -22 11 -43 15 -46 15 -9 10 -50 -8 -66 -24 -21 -248 -68 -321
-68 -61 0 -228 32 -261 49 -10 6 -31 25 -45 43 -33 42 -27 35 -125 123 -47 41
-88 75 -91 75 -4 0 -20 28 -36 63 -40 88 -42 150 -9 293 15 65 29 158 32 207
7 100 4 99 107 70z m-5724 -683 c0 -14 51 -38 191 -90 l127 -46 -19 -35 c-9
-19 -26 -70 -37 -111 l-20 -77 27 10 c14 6 55 14 91 19 76 9 194 57 248 99 20
16 50 33 66 37 19 4 32 16 40 35 9 26 15 29 53 29 l43 0 0 -68 c0 -68 -12 -99
-50 -130 -31 -25 -137 -81 -194 -102 -32 -13 -82 -35 -112 -50 -29 -16 -78
-34 -108 -41 -47 -10 -64 -10 -116 5 -45 13 -78 15 -128 10 -54 -5 -86 -2
-152 15 -137 36 -168 71 -177 202 -7 103 15 151 92 203 34 22 55 43 55 55 0
18 32 39 63 40 9 1 17 -3 17 -9z m40 -856 c42 -22 50 -31 50 -54 0 -16 -7 -30
-15 -34 -53 -20 54 -51 154 -44 67 5 169 44 230 87 16 12 33 21 39 21 13 0
-124 -262 -145 -277 -9 -7 -28 -13 -41 -13 -13 0 -36 -13 -52 -29 -37 -37 -94
-44 -231 -31 -93 10 -106 14 -122 35 -13 17 -29 25 -50 26 -18 0 -48 5 -67 12
-30 10 -35 17 -42 55 -4 23 -16 54 -28 69 -27 35 -25 82 6 129 15 21 28 41 29
42 14 15 94 31 158 32 64 0 86 -4 127 -26z m-97 -566 c22 -11 37 -49 37 -92 0
-19 6 -39 14 -45 17 -14 74 -4 104 20 13 10 37 21 55 25 18 3 45 13 61 21 l29
15 -7 -64 c-6 -55 -4 -67 13 -90 18 -23 19 -27 5 -32 -9 -3 -24 -6 -34 -6 -10
0 -25 -9 -33 -20 -12 -18 -29 -22 -113 -27 -95 -5 -102 -4 -169 25 -39 16 -89
36 -113 43 -61 18 -92 58 -92 118 0 53 15 73 85 110 32 16 50 20 90 15 28 -4
58 -11 68 -16z"/>
</g>
</svg>
